<?xml version="1.0" encoding="utf-8"?>
<!-- Generator: Adobe Illustrator 27.5.0, SVG Export Plug-In . SVG Version: 6.00 Build 0)  -->
<svg version="1.1" id="Layer_1" xmlns="http://www.w3.org/2000/svg" xmlns:xlink="http://www.w3.org/1999/xlink" x="0px" y="0px"
	 viewBox="0 0 3000 2000" style="enable-background:new 0 0 3000 2000;" xml:space="preserve">
<rect style="fill:#FFFFFF;" width="3000" height="2000"/>
<g>
	<path style="fill:#F6F9FF;" d="M2766.311,1130.449c6.195-214.342-72.498-444.511-194.962-588.385
		c-175.197-205.825-455.239-266.089-714.431-248.425c-215.722,14.702-433.827,77.223-650.476,43.384
		c-142.8-22.304-277.202-88.728-423.697-84.105c-427.677,13.497-643.509,489.767-527.489,866.803
		c98.771,320.98,427.441,398.477,727.341,391.106c110.009-2.704,214.069-9.01,323.553,1.136
		c137.686,12.76,273.777,39.366,407.459,74.349c297.272,77.791,709.071,179.118,935.844-102.681
		C2726.725,1387.61,2762.508,1262.011,2766.311,1130.449z"/>
	<g>
		<g>
			<path style="fill:#6880E4;" d="M738.477,1704.252h643.958c16.413,0,28.323-13.305,26.601-29.718L1292.964,567.933
				c-1.722-16.413-16.422-29.718-32.835-29.718H616.171c-16.413,0-28.322,13.305-26.601,29.718l116.072,1106.601
				C707.363,1690.946,722.064,1704.252,738.477,1704.252z"/>
			<g>
				<defs>
					<polygon id="XMLID_88_" points="756.056,1581.349 1339.074,1581.349 1237.967,617.423 654.949,617.423 					"/>
				</defs>
				<use xlink:href="#XMLID_88_"  style="overflow:visible;fill:#D4DFFF;"/>
				<clipPath id="XMLID_00000129888630271576629700000009240568958825159350_">
					<use xlink:href="#XMLID_88_"  style="overflow:visible;"/>
				</clipPath>
				<path style="opacity:0.19;clip-path:url(#XMLID_00000129888630271576629700000009240568958825159350_);fill:#6880E4;" d="
					M742.08,599.945c0,0,107.796,708.181,622.458,814.696l35.789,202.328H699.604L592.953,600.187L742.08,599.945z"/>
			</g>
			<path style="fill:#1B3D9E;" d="M988.305,1673.574h137.867c9.423,0,16.261-7.639,15.272-17.062l-2.358-22.481
				c-0.988-9.423-9.429-17.062-18.852-17.062H982.367c-9.423,0-16.261,7.639-15.272,17.062l2.358,22.481
				C970.441,1665.935,978.882,1673.574,988.305,1673.574z"/>
		</g>
		<g>
			<path style="fill:#FE8E9C;" d="M1006.312,951.089c-0.468-10.62,6.963-19.626,16.402-19.874
				c79.322-2.076,405.439-9.221,409.76,13.525c4.919,25.898,24.7,373.159,11.191,379.183c-13.509,6.024-407.408,3.509-414.754-5.298
				C1022.573,1311.025,1009.718,1028.432,1006.312,951.089z"/>
			<path style="fill:#FE8E9C;" d="M1005.636,941.537c0,0-2.455-10.356-20.437-14.788c-17.982-4.432-355.929-40.639-386.574-11.811
				c-30.645,28.828,24.119,411.23,40.561,415.35c16.442,4.12,381.083,0.855,394.001-12.12
				C1046.106,1305.192,1005.636,941.537,1005.636,941.537z"/>
			<path style="fill:#FC476A;" d="M1399.306,978.837c0,0-374.452,5.714-391.543,3.632c-17.091-2.082-375.109-23.836-379.924-19.355
				c-4.815,4.481,363.313,38.18,379.728,35.415S1423.084,993.63,1399.306,978.837z"/>
			<path style="fill:#FC476A;" d="M638.928,987.589c0,0,367.462,22.943,369.897,28.207c2.434,5.264,26.508,263.011,17.197,270.511
				c-9.311,7.5-350.162,11.236-355.228,7.189C665.727,1289.449,625.49,1012.442,638.928,987.589z"/>
			<path style="fill:#FC476A;" d="M615.479,908.334c0,0-12.323,38.769-7.859,110.424c4.464,71.655,47.831,312.591,47.831,312.591
				l-16.264-1.062c0,0-19.447-44.656-31.862-151.396c-12.415-106.74-28.629-227.566-8.698-263.954
				C598.626,914.938,603.915,908.613,615.479,908.334z"/>
			<path style="fill:#FC476A;" d="M1420.565,938.383c0,0,6.383,3.828,9.766,47.922c3.383,44.095,11.356,285.825,7.351,312.356
				c-4.005,26.532-7.436,26.744-7.436,26.744s15.643,2.066,16.784-2.105c1.14-4.171,6.372-48.859,2.922-95.625
				c-3.451-46.766-3.986-182.819-7.878-198.332C1438.182,1013.83,1446.163,936.695,1420.565,938.383z"/>
			<path style="fill:#FC476A;" d="M1031.065,1013.984c0,0,380.579-9.026,381.888-2.746c1.309,6.28,5.76,55.464,3.471,62.661
				s-378.702,12.954-382.492,6.48C1030.143,1073.904,1022.676,1020.995,1031.065,1013.984z"/>
			<g>
				<path style="fill:#FE8E9C;" d="M992.191,1028.576l-0.157-1.658c-0.43-0.037-0.981-0.084-1.65-0.138l0.162-1.994
					c1.246,0.102,2.093,0.175,2.507,0.217l0.816,0.084l0.313,3.302L992.191,1028.576z"/>
				<path style="fill:#FE8E9C;" d="M752.115,1284.11h-2.166v-2l4.995-0.001v2L752.115,1284.11z M759.94,1284.106l-0.002-2
					l4.995-0.009l0.005,2L759.94,1284.106z M744.954,1284.105l-4.996-0.009l0.005-2l4.993,0.009L744.954,1284.105z
					 M769.936,1284.083l-0.006-2l4.998-0.016l0.007,2L769.936,1284.083z M734.962,1284.082l-4.997-0.019l0.009-2l4.995,0.019
					L734.962,1284.082z M779.933,1284.049l-0.008-2l4.997-0.022l0.01,2L779.933,1284.049z M724.969,1284.036l-4.997-0.032l0.015-2
					l4.994,0.032L724.969,1284.036z M789.93,1284l-0.011-2l4.996-0.029l0.013,2L789.93,1284z M714.975,1283.964
					c-1.719-0.016-3.386-0.032-4.997-0.051l0.023-2c1.609,0.019,3.274,0.035,4.992,0.051L714.975,1283.964z M799.925,1283.939
					l-0.013-2l4.996-0.035l0.016,2L799.925,1283.939z M809.922,1283.863l-0.017-2l4.997-0.042l0.018,2L809.922,1283.863z
					 M704.98,1283.851c-1.748-0.024-3.416-0.05-4.998-0.077l0.034-2c1.581,0.027,3.246,0.053,4.992,0.077L704.98,1283.851z
					 M819.917,1283.777l-0.018-2l4.997-0.049l0.02,2L819.917,1283.777z M694.982,1283.676c-1.829-0.041-3.5-0.085-5.002-0.13l0.06-2
					c1.498,0.045,3.164,0.089,4.987,0.13L694.982,1283.676z M829.912,1283.675l-0.021-2l4.912-0.054l0.096,0.999l-0.073,1.001
					L829.912,1283.675z M839.907,1283.561l-0.023-2l5.013-0.062l0.025,2L839.907,1283.561z M849.928,1283.434l-0.025-2l4.999-0.068
					l0.028,2L849.928,1283.434z M684.966,1283.349c-3.602-0.184-4.227-0.35-4.56-0.504c-0.468-0.219-0.73-0.697-0.905-1.091
					l1.827-0.814c0.021,0.048,0.04,0.087,0.056,0.119c0.308,0.052,1.217,0.166,3.684,0.292L684.966,1283.349z M859.923,1283.292
					l-0.029-2l4.985-0.076l0.032,2L859.923,1283.292z M869.892,1283.137l-0.033-2l4.996-0.084l0.034,2L869.892,1283.137z
					 M879.886,1282.964l-0.035-2l4.995-0.092l0.038,2L879.886,1282.964z M889.882,1282.777l-0.04-2l4.996-0.102l0.041,2
					L889.882,1282.777z M899.876,1282.569l-0.043-2l4.995-0.111l0.046,2L899.876,1282.569z M909.871,1282.34l-0.048-2l4.995-0.123
					l0.051,2L909.871,1282.34z M919.867,1282.088l-0.054-2l4.995-0.136l0.056,2L919.867,1282.088z M929.86,1281.81l-0.058-2
					l4.994-0.149l0.062,2L929.86,1281.81z M939.856,1281.501l-0.066-1.998l4.995-0.168l0.068,1.998L939.856,1281.501z
					 M949.852,1281.156l-0.073-1.998c1.688-0.061,3.352-0.125,4.993-0.189l0.078,1.998
					C953.208,1281.031,951.542,1281.094,949.852,1281.156z M959.848,1280.764l-0.083-1.998c1.695-0.07,3.359-0.142,4.992-0.216
					l0.09,1.998C963.211,1280.621,961.544,1280.694,959.848,1280.764z M969.843,1280.315l-0.096-1.998
					c1.704-0.082,3.368-0.166,4.99-0.252l0.105,1.998C973.218,1280.149,971.551,1280.233,969.843,1280.315z M979.841,1279.785
					l-0.115-1.996c1.719-0.1,3.382-0.201,4.986-0.305l0.129,1.996C983.232,1279.584,981.565,1279.686,979.841,1279.785z
					 M989.841,1279.137l-0.146-1.994c1.749-0.128,3.41-0.259,4.978-0.392l0.17,1.992
					C993.268,1278.878,991.599,1279.009,989.841,1279.137z M999.846,1278.277l-0.205-1.99c1.835-0.188,3.499-0.386,4.942-0.584
					l0.271,1.981C1003.389,1277.885,1001.704,1278.084,999.846,1278.277z M1009.889,1276.795l-0.469-1.943
					c1.365-0.33,1.841-0.59,1.98-0.685c0.044-0.167,0.122-0.574,0.178-1.481l1.996,0.123c-0.067,1.087-0.174,1.763-0.345,2.192
					C1012.919,1275.778,1011.951,1276.298,1009.889,1276.795z M678.142,1276.7c-0.289-1.397-0.602-3.069-0.932-4.968l1.971-0.342
					c0.326,1.878,0.635,3.527,0.92,4.905L678.142,1276.7z M1011.638,1267.769c-0.021-1.461-0.067-3.129-0.135-4.989l1.999-0.072
					c0.068,1.876,0.114,3.56,0.136,5.032L1011.638,1267.769z M676.393,1266.771c-0.245-1.553-0.497-3.209-0.758-4.963l1.979-0.293
					c0.259,1.746,0.511,3.396,0.755,4.943L676.393,1266.771z M1011.291,1257.785c-0.075-1.574-0.161-3.24-0.257-4.994l1.997-0.109
					c0.096,1.758,0.182,3.43,0.258,5.008L1011.291,1257.785z M674.918,1256.844c-0.225-1.593-0.454-3.249-0.687-4.964l1.981-0.27
					c0.233,1.711,0.462,3.363,0.687,4.954L674.918,1256.844z M1010.746,1247.798c-0.096-1.608-0.2-3.272-0.31-4.991l1.996-0.127
					c0.11,1.721,0.213,3.389,0.31,4.999L1010.746,1247.798z M673.565,1246.916c-0.213-1.612-0.429-3.269-0.646-4.966l1.983-0.254
					c0.218,1.693,0.433,3.348,0.646,4.958L673.565,1246.916z M1010.11,1237.818c-0.108-1.623-0.222-3.287-0.34-4.988l1.995-0.139
					c0.118,1.703,0.232,3.369,0.34,4.994L1010.11,1237.818z M672.288,1236.985c-0.204-1.624-0.41-3.28-0.618-4.967l1.985-0.244
					c0.207,1.685,0.413,3.339,0.617,4.961L672.288,1236.985z M1009.419,1227.841l-0.362-4.986l1.995-0.146l0.362,4.99
					L1009.419,1227.841z M671.064,1227.051l-0.596-4.968l1.986-0.236l0.595,4.964L671.064,1227.051z M1008.688,1217.869
					l-0.377-4.985l1.994-0.152l0.378,4.987L1008.688,1217.869z M669.882,1217.115l-0.578-4.97l1.987-0.228l0.578,4.966
					L669.882,1217.115z M1007.928,1207.899l-0.389-4.983l1.994-0.156l0.389,4.985L1007.928,1207.899z M668.734,1207.175
					l-0.563-4.971l1.987-0.223l0.563,4.967L668.734,1207.175z M1007.144,1197.933l-0.398-4.983l1.993-0.16l0.399,4.985
					L1007.144,1197.933z M667.616,1197.235l-0.549-4.972l1.988-0.219l0.549,4.97L667.616,1197.235z M1006.343,1187.968l-0.407-4.982
					l1.993-0.164l0.407,4.984L1006.343,1187.968z M666.524,1187.292l-0.537-4.971l1.988-0.215l0.537,4.971L666.524,1187.292z
					 M1005.525,1178.002l-0.414-4.981l1.993-0.166l0.414,4.983L1005.525,1178.002z M665.457,1177.348l-0.525-4.973l1.989-0.209
					l0.525,4.971L665.457,1177.348z M1004.695,1168.041l-0.42-4.982l1.993-0.168l0.42,4.983L1004.695,1168.041z M664.413,1167.403
					l-0.514-4.974l1.989-0.204l0.514,4.971L664.413,1167.403z M1003.851,1158.078l-0.425-4.981l1.993-0.17l0.425,4.981
					L1003.851,1158.078z M663.392,1157.468l-0.503-4.972l1.99-0.201l0.502,4.97L663.392,1157.468z M1002.998,1148.103l-0.431-4.984
					l1.992-0.172l0.431,4.984L1002.998,1148.103z M662.389,1147.513l-0.495-4.993l1.99-0.195l0.495,4.991L662.389,1147.513z
					 M1002.135,1138.145l-0.433-4.965l1.992-0.174l0.433,4.965L1002.135,1138.145z M661.408,1137.543l-0.482-4.977l1.991-0.191
					l0.482,4.975L661.408,1137.543z M1001.266,1128.201l-0.438-4.98l1.992-0.176l0.438,4.981L1001.266,1128.201z M660.45,1127.589
					l-0.471-4.979l1.991-0.188l0.471,4.977L660.45,1127.589z M1000.388,1118.241l-0.442-4.98l1.992-0.178l0.442,4.981
					L1000.388,1118.241z M659.514,1117.631l-0.459-4.979l1.991-0.184l0.459,4.979L659.514,1117.631z M999.502,1108.282l-0.446-4.98
					l1.992-0.178l0.446,4.981L999.502,1108.282z M658.602,1107.672l-0.446-4.98l1.992-0.178l0.446,4.979L658.602,1107.672z
					 M998.609,1098.323l-0.449-4.979l1.992-0.18l0.449,4.979L998.609,1098.323z M657.717,1097.709l-0.433-4.981l1.992-0.172
					l0.433,4.979L657.717,1097.709z M997.711,1088.363l-0.452-4.979l1.992-0.182l0.452,4.98L997.711,1088.363z M656.858,1087.742
					l-0.417-4.984l1.993-0.166l0.417,4.982L656.858,1087.742z M996.806,1078.405l-0.455-4.981l1.991-0.182l0.456,4.981
					L996.806,1078.405z M656.033,1077.773c-0.136-1.681-0.27-3.344-0.4-4.987l1.994-0.158c0.13,1.644,0.263,3.305,0.399,4.983
					L656.033,1077.773z M995.895,1068.442l-0.458-4.98l1.991-0.184l0.458,4.982L995.895,1068.442z M655.245,1067.799
					c-0.13-1.686-0.256-3.35-0.378-4.99l1.994-0.148c0.123,1.638,0.248,3.3,0.378,4.984L655.245,1067.799z M994.979,1058.478
					l-0.461-4.983l1.991-0.184l0.461,4.983L994.979,1058.478z M654.501,1057.817c-0.122-1.694-0.239-3.359-0.352-4.992l1.995-0.139
					c0.113,1.633,0.23,3.296,0.352,4.988L654.501,1057.817z M994.056,1048.514l-0.464-4.987l1.991-0.186l0.464,4.987
					L994.056,1048.514z M653.813,1047.829c-0.111-1.706-0.217-3.372-0.316-4.997l1.996-0.123c0.1,1.623,0.205,3.287,0.316,4.989
					L653.813,1047.829z M993.127,1038.537l-0.468-4.993l1.991-0.188l0.468,4.995L993.127,1038.537z M653.203,1037.831
					c-0.097-1.726-0.186-3.395-0.266-5.005l1.997-0.1c0.08,1.606,0.169,3.271,0.265,4.993L653.203,1037.831z M652.707,1027.816
					c-0.074-1.766-0.134-3.44-0.182-5.018l1.999-0.061c0.048,1.57,0.108,3.237,0.181,4.995L652.707,1027.816z M986.869,1026.501
					l-4.991-0.384l0.152-1.994l4.994,0.384L986.869,1026.501z M976.879,1025.741l-4.995-0.373l0.148-1.994l4.997,0.373
					L976.879,1025.741z M966.892,1024.999l-4.99-0.367l0.146-1.994l4.993,0.367L966.892,1024.999z M956.912,1024.269l-4.99-0.363
					l0.145-1.994l4.99,0.363L956.912,1024.269z M946.934,1023.545l-4.989-0.359l0.143-1.994l4.989,0.359L946.934,1023.545z
					 M936.958,1022.827l-4.988-0.355l0.142-1.994l4.988,0.355L936.958,1022.827z M926.983,1022.117l-4.988-0.353l0.142-1.994
					l4.988,0.354L926.983,1022.117z M917.009,1021.41l-4.987-0.351l0.141-1.994l4.986,0.351L917.009,1021.41z M907.034,1020.712
					l-4.986-0.35l0.14-1.994l4.986,0.348L907.034,1020.712z M897.062,1020.016l-4.987-0.346l0.139-1.996l4.986,0.346
					L897.062,1020.016z M887.089,1019.325l-4.986-0.344l0.138-1.996l4.986,0.344L887.089,1019.325z M877.116,1018.639l-4.987-0.341
					l0.137-1.996l4.987,0.341L877.116,1018.639z M867.144,1017.958l-4.987-0.339l0.136-1.996l4.987,0.339L867.144,1017.958z
					 M652.415,1017.776c-0.009-0.753-0.013-1.473-0.013-2.159c0-1.034,0.01-1.992,0.031-2.87l1.999,0.047
					c-0.02,0.864-0.03,1.807-0.03,2.823c0,0.679,0.004,1.391,0.013,2.136L652.415,1017.776z M857.171,1017.282l-4.987-0.336
					l0.135-1.996l4.986,0.336L857.171,1017.282z M847.197,1016.612l-4.987-0.333l0.134-1.996l4.986,0.333L847.197,1016.612z
					 M837.224,1015.948l-4.987-0.331l0.133-1.996l4.987,0.331L837.224,1015.948z M827.251,1015.288l-5.006-0.328l0.131-1.996
					l5.006,0.328L827.251,1015.288z M817.246,1014.634l-4.99-0.324l0.129-1.996l4.991,0.324L817.246,1014.634z M807.275,1013.989
					l-4.974-0.319l0.128-1.996l4.975,0.319L807.275,1013.989z M797.314,1013.352l-4.988-0.316l0.126-1.996l4.989,0.316
					L797.314,1013.352z M787.339,1012.721l-4.988-0.313l0.125-1.996l4.989,0.313L787.339,1012.721z M777.363,1012.099l-4.988-0.307
					l0.122-1.996l4.989,0.307L777.363,1012.099z M767.385,1011.487l-4.988-0.302l0.12-1.996l4.989,0.302L767.385,1011.487z
					 M757.408,1010.886l-4.989-0.296l0.118-1.996l4.99,0.296L757.408,1010.886z M747.429,1010.298l-4.989-0.289l0.114-1.997
					l4.992,0.29L747.429,1010.298z M737.449,1009.723l-4.991-0.281l0.111-1.997l4.993,0.281L737.449,1009.723z M727.468,1009.166
					l-4.991-0.271l0.107-1.997l4.993,0.271L727.468,1009.166z M717.484,1008.63l-4.992-0.259l0.103-1.997l4.995,0.259
					L717.484,1008.63z M707.5,1008.118l-4.994-0.244l0.096-1.998l4.998,0.245L707.5,1008.118z M654.774,1007.956l-1.974-0.326
					c0.212-1.282,0.504-1.95,1.009-2.304c0.34-0.239,0.933-0.507,3.673-0.656l0.108,1.997c-1.692,0.091-2.339,0.221-2.571,0.287
					C654.966,1007.082,654.871,1007.371,654.774,1007.956z M655.063,1006.865L655.063,1006.865L655.063,1006.865z M697.511,1007.64
					c-1.705-0.078-3.371-0.153-4.995-0.224l0.087-1.998c1.626,0.071,3.293,0.146,5,0.224L697.511,1007.64z M687.521,1007.206
					c-1.721-0.07-3.388-0.135-4.997-0.194l0.074-1.999c1.611,0.06,3.28,0.125,5.004,0.195L687.521,1007.206z M677.524,1006.839
					c-1.753-0.057-3.421-0.105-4.999-0.145l0.051-1.999c1.582,0.04,3.255,0.088,5.013,0.145L677.524,1006.839z M667.525,1006.591
					c-1.595-0.024-3.06-0.037-4.386-0.037l-0.608,0.001l-0.005-2l0.613-0.001c1.336,0,2.811,0.013,4.417,0.037L667.525,1006.591z"/>
			</g>
			<path style="fill:#FC476A;" d="M1040.762,1094.793c-2.217,0.152-3.9,2.044-3.8,4.264c1.258,27.862,9.171,195.533,17.432,194.62
				c9.009-0.996,363.024,6.556,365.669,0.107c2.646-6.449,0.39-189.698-9.525-203.533
				C1410.539,1090.251,1086.57,1091.658,1040.762,1094.793z"/>
			<path style="fill:#FC476A;" d="M1005.636,941.537l9.143,86.218c0,0-8.67-91.138,7.935-96.54
				C1022.714,931.215,1011.013,931,1005.636,941.537z"/>
			<path style="fill:#FC476A;" d="M1030.212,1319.608c0,0,5.405-7.206,5.449-18.262c0.044-11.056-1.15-42.21-1.15-42.21
				s8.655,53.464,1.641,61.283L1030.212,1319.608z"/>
			<path style="fill:#FE8E9C;" d="M1344.888,1287.655l-5.001-0.001l0.002-2l5,0.001V1287.655z M1349.89,1287.652l-0.002-2
				l5.001-0.007l0.002,2L1349.89,1287.652z M1334.885,1287.649l-5.004-0.008l0.004-2l5.003,0.008L1334.885,1287.649z
				 M1359.896,1287.631l-0.006-2l5-0.019l0.01,2L1359.896,1287.631z M1324.875,1287.63l-5.005-0.014l0.006-2l5.004,0.014
				L1324.875,1287.63z M1314.865,1287.6l-5.004-0.019l0.008-2l5.003,0.019L1314.865,1287.6z M1369.901,1287.588l-0.012-2
				c1.71-0.01,3.377-0.021,5-0.033l0.016,2C1373.282,1287.568,1371.613,1287.578,1369.901,1287.588z M1304.857,1287.562
				l-5.005-0.022l0.01-2l5.003,0.022L1304.857,1287.562z M1294.848,1287.513l-5.004-0.026l0.011-2l5.004,0.026L1294.848,1287.513z
				 M1379.909,1287.512l-0.02-2c1.729-0.017,3.396-0.035,4.999-0.055l0.024,2
				C1383.308,1287.477,1381.639,1287.495,1379.909,1287.512z M1284.839,1287.459l-5.004-0.03l0.013-2l5.003,0.03L1284.839,1287.459z
				 M1274.831,1287.398l-5.004-0.033l0.014-2l5.003,0.033L1274.831,1287.398z M1389.917,1287.386l-0.032-2
				c1.767-0.028,3.434-0.06,4.995-0.094l0.044,2C1393.358,1287.326,1391.688,1287.358,1389.917,1287.386z M1264.823,1287.329
				l-5.005-0.036l0.016-2l5.003,0.036L1264.823,1287.329z M1254.816,1287.255l-5.004-0.038l0.016-2l5.004,0.038L1254.816,1287.255z
				 M1244.808,1287.178l-5.021-0.041l0.017-2l5.021,0.041L1244.808,1287.178z M1399.933,1287.166l-0.061-2
				c1.904-0.057,3.57-0.12,4.981-0.189l0.098,1.998C1403.53,1287.044,1401.851,1287.108,1399.933,1287.166z M1234.771,1287.093
				l-5.008-0.043l0.018-2l5.007,0.043L1234.771,1287.093z M1224.763,1287.006l-4.995-0.046l0.019-2l4.994,0.046L1224.763,1287.006z
				 M1214.78,1286.914l-5.003-0.049l0.02-2l5.004,0.049L1214.78,1286.914z M1204.772,1286.818l-5.003-0.051l0.019-2l5.004,0.051
				L1204.772,1286.818z M1194.766,1286.716l-5.004-0.053l0.021-2l5.003,0.053L1194.766,1286.716z M1184.758,1286.61l-5.004-0.055
				l0.022-2l5.003,0.055L1184.758,1286.61z M1410.079,1286.536l-0.368-1.87c-0.029,0.032-0.043,0.055-0.044,0.056
				c0.008-0.014,0.021-0.039,0.038-0.082l-0.013-0.066c0.014-0.003,0.027-0.005,0.041-0.008c0.11-0.321,0.322-1.213,0.509-3.576
				l1.994,0.158c-0.32,4.039-0.771,4.691-1.243,5.045C1410.789,1286.349,1410.523,1286.448,1410.079,1286.536z M1174.749,1286.5
				l-5.003-0.057l0.022-2l5.004,0.057L1174.749,1286.5z M1164.741,1286.385l-5.004-0.059l0.023-2l5.004,0.059L1164.741,1286.385z
				 M1154.733,1286.268l-5.004-0.062l0.024-2l5.004,0.062L1154.733,1286.268z M1144.725,1286.144l-5.006-0.063l0.026-2l5.004,0.063
				L1144.725,1286.144z M1134.715,1286.014l-5.006-0.066l0.027-2l5.005,0.066L1134.715,1286.014z M1124.704,1285.879l-5.006-0.069
				l0.028-2l5.004,0.069L1124.704,1285.879z M1114.691,1285.74l-5.006-0.074l0.03-2l5.006,0.074L1114.691,1285.74z
				 M1104.677,1285.589l-5.007-0.078l0.031-2l5.007,0.078L1104.677,1285.589z M1094.661,1285.43l-5.011-0.085l0.035-2l5.008,0.085
				L1094.661,1285.43z M1084.638,1285.254l-5.015-0.097l0.04-2l5.012,0.097L1084.638,1285.254z M1074.603,1285.051
				c-2.009-0.047-3.695-0.09-5.031-0.13l0.06-2c1.333,0.04,3.014,0.083,5.018,0.13L1074.603,1285.051z M1064.355,1283.009
				c-0.379-1.044-0.757-2.705-1.155-5.077l1.973-0.33c0.372,2.22,0.73,3.809,1.062,4.726L1064.355,1283.009z M1412.499,1276.109
				l-1.999-0.066c0.05-1.504,0.087-3.17,0.114-4.981l2,0.029C1412.587,1272.915,1412.549,1274.593,1412.499,1276.109z
				 M1062.469,1272.918c-0.199-1.534-0.399-3.207-0.599-5.006l1.987-0.221c0.199,1.785,0.397,3.446,0.595,4.969L1062.469,1272.918z
				 M1412.654,1266.076l-2-0.006l0.002-1.577c0-1.105-0.003-2.246-0.009-3.42l2-0.012c0.006,1.178,0.009,2.322,0.009,3.432
				L1412.654,1266.076z M1061.343,1262.909c-0.16-1.597-0.32-3.266-0.479-5.001l1.991-0.184c0.159,1.729,0.318,3.395,0.478,4.985
				L1061.343,1262.909z M1410.606,1256.068c-0.018-1.62-0.04-3.291-0.066-5.004l2-0.031c0.026,1.717,0.049,3.39,0.066,5.014
				L1410.606,1256.068z M1060.42,1252.906c-0.14-1.622-0.279-3.29-0.418-5l1.993-0.162c0.139,1.706,0.278,3.372,0.417,4.99
				L1060.42,1252.906z M1410.452,1246.058c-0.032-1.636-0.067-3.305-0.104-5.004l1.999-0.045c0.039,1.701,0.074,3.372,0.105,5.01
				L1410.452,1246.058z M1059.604,1242.906c-0.127-1.637-0.253-3.305-0.379-5l1.994-0.148c0.126,1.693,0.252,3.359,0.379,4.994
				L1059.604,1242.906z M1410.229,1236.049c-0.042-1.646-0.086-3.314-0.133-5.003l1.999-0.057c0.047,1.69,0.092,3.361,0.133,5.009
				L1410.229,1236.049z M1058.86,1232.905c-0.118-1.646-0.235-3.314-0.352-5l1.995-0.139c0.117,1.685,0.234,3.352,0.352,4.996
				L1058.86,1232.905z M1409.951,1226.043c-0.049-1.652-0.101-3.32-0.155-5.002l1.999-0.064c0.054,1.684,0.106,3.354,0.155,5.006
				L1409.951,1226.043z M1058.167,1222.903l-0.331-5l1.996-0.131l0.33,4.998L1058.167,1222.903z M1409.631,1216.038l-0.174-5.002
				l1.999-0.072l0.174,5.006L1409.631,1216.038z M1057.513,1212.902l-0.314-5.001l1.996-0.125l0.314,4.999L1057.513,1212.902z
				 M1409.274,1206.033l-0.191-4.985l1.998-0.078l0.191,4.989L1409.274,1206.033z M1056.892,1202.899l-0.301-5.002l1.996-0.119
				l0.301,5L1056.892,1202.899z M1408.885,1196.051l-0.207-5.009l1.998-0.084l0.207,5.011L1408.885,1196.051z M1056.296,1192.879
				l-0.29-5.004l1.997-0.114l0.289,5.001L1056.296,1192.879z M1408.464,1186.044l-0.222-5.001l1.998-0.09l0.222,5.003
				L1408.464,1186.044z M1055.722,1182.888l-0.279-5.002l1.997-0.111l0.279,5L1055.722,1182.888z M1408.012,1176.042l-0.238-5
				l1.998-0.098l0.238,5.004L1408.012,1176.042z M1055.168,1172.883l-0.27-5.004l1.997-0.107l0.27,5.002L1055.168,1172.883z
				 M1407.529,1166.043l-0.254-4.998l1.997-0.103l0.254,5.002L1407.529,1166.043z M1054.633,1162.875l-0.262-5.005l1.997-0.103
				l0.262,5.003L1054.633,1162.875z M1407.012,1156.047l-0.273-4.998l1.997-0.111l0.272,5.002L1407.012,1156.047z
				 M1054.112,1152.865l-0.254-5.006l1.997-0.102l0.254,5.006L1054.112,1152.865z M1406.458,1146.051
				c-0.098-1.694-0.195-3.362-0.293-4.998l1.996-0.119c0.098,1.638,0.196,3.306,0.294,5.002L1406.458,1146.051z M1053.607,1142.852
				l-0.248-5.009l1.998-0.098l0.248,5.007L1053.607,1142.852z M1405.858,1136.056c-0.107-1.707-0.214-3.374-0.321-4.996l1.996-0.133
				c0.107,1.626,0.214,3.295,0.321,5.004L1405.858,1136.056z M1053.115,1132.833l-0.241-5.013l1.998-0.096l0.241,5.011
				L1053.115,1132.833z M1405.2,1126.065c-0.121-1.729-0.241-3.396-0.36-4.994l1.994-0.148c0.12,1.601,0.24,3.271,0.361,5.004
				L1405.2,1126.065z M1052.636,1122.805l-0.234-5.021l1.998-0.092l0.234,5.019L1052.636,1122.805z M1404.45,1116.079
				c-0.146-1.784-0.29-3.45-0.431-4.986l1.991-0.184c0.142,1.542,0.287,3.216,0.433,5.008L1404.45,1116.079z M1052.172,1112.755
				l-0.227-5.068l1.998-0.088l0.227,5.067L1052.172,1112.755z M1055.333,1107.462l-0.452-1.947c1.206-0.28,2.907-0.561,5.057-0.833
				l0.251,1.984C1058.107,1106.93,1056.473,1107.198,1055.333,1107.462z M1065.149,1106.123l-0.19-1.99
				c1.54-0.147,3.214-0.293,5.013-0.437l0.158,1.994C1068.343,1105.832,1066.68,1105.978,1065.149,1106.123z M1403.519,1106.119
				c-0.239-2.136-0.466-3.785-0.674-4.901l1.966-0.367c0.217,1.165,0.451,2.862,0.695,5.046L1403.519,1106.119z M1075.12,1105.32
				l-0.138-1.996c1.595-0.11,3.266-0.22,5.008-0.327l0.123,1.996C1078.377,1105.1,1076.712,1105.209,1075.12,1105.32z
				 M1085.11,1104.698l-0.113-1.996c1.619-0.092,3.289-0.183,5.007-0.271l0.104,1.998
				C1088.392,1104.517,1086.726,1104.606,1085.11,1104.698z M1095.106,1104.179l-0.097-1.998c1.631-0.079,3.3-0.157,5.005-0.234
				l0.091,1.998C1098.403,1104.022,1096.736,1104.1,1095.106,1104.179z M1105.104,1103.725l-0.085-1.998l5.004-0.207l0.081,1.998
				L1105.104,1103.725z M1115.105,1103.322l-0.076-1.998l5.004-0.187l0.073,1.998L1115.105,1103.322z M1125.108,1102.956
				l-0.07-1.998l5.004-0.17l0.066,1.998L1125.108,1102.956z M1135.11,1102.624l-0.065-1.998l5.004-0.157l0.061,1.999
				L1135.11,1102.624z M1145.114,1102.319l-0.06-2l5.004-0.146l0.057,2L1145.114,1102.319z M1155.116,1102.032l-0.056-2l5.004-0.135
				l0.053,2L1155.116,1102.032z M1165.119,1101.768l-0.052-2l5.004-0.126l0.049,2L1165.119,1101.768z M1175.124,1101.522l-0.048-2
				l5.003-0.118l0.047,2L1175.124,1101.522z M1185.126,1101.288l-0.043-2l5.003-0.109l0.043,2L1185.126,1101.288z
				 M1195.131,1101.073l-0.041-2l5.003-0.103l0.041,2L1195.131,1101.073z M1205.137,1100.869l-0.039-2l5.003-0.097l0.039,2
				L1205.137,1100.869z M1215.141,1100.678l-0.036-2l5.004-0.09l0.035,2L1215.141,1100.678z M1225.146,1100.499l-0.034-2
				l5.019-0.085l0.034,2L1225.146,1100.499z M1235.175,1100.332l-0.031-2l5.004-0.079l0.031,2L1235.175,1100.332z
				 M1245.175,1100.177l-0.029-2l4.989-0.073l0.029,2L1245.175,1100.177z M1255.167,1100.031l-0.028-2l5.004-0.068l0.027,2
				L1255.167,1100.031z M1265.174,1099.899l-0.027-2l5.005-0.063l0.024,2L1265.174,1099.899z M1400.194,1099.824
				c-1.248-0.075-2.919-0.144-4.969-0.207l0.062-2c2.069,0.063,3.76,0.135,5.027,0.211L1400.194,1099.824z M1275.18,1099.776
				l-0.023-2l5.004-0.058l0.023,2L1275.18,1099.776z M1285.187,1099.662l-0.021-2l5.004-0.052l0.02,2L1285.187,1099.662z
				 M1295.194,1099.562l-0.019-2l5.004-0.046l0.018,2L1295.194,1099.562z M1390.236,1099.494c-1.543-0.03-3.211-0.058-4.995-0.083
				l0.028-2c1.789,0.025,3.46,0.053,5.006,0.083L1390.236,1099.494z M1305.201,1099.473l-0.017-2l5.005-0.04l0.016,2
				L1305.201,1099.473z M1315.209,1099.396l-0.014-2l5.005-0.033l0.013,2L1315.209,1099.396z M1380.244,1099.351
				c-1.595-0.016-3.262-0.03-4.998-0.042l0.014-2c1.738,0.012,3.407,0.026,5.004,0.042L1380.244,1099.351z M1325.218,1099.331
				l-0.011-2l5.006-0.025l0.01,2L1325.218,1099.331z M1335.228,1099.285l-0.009-2l5.008-0.019l0.006,2L1335.228,1099.285z
				 M1370.247,1099.278l-4.999-0.019l0.006-2l5.003,0.019L1370.247,1099.278z M1345.237,1099.253l-0.004-2l5.007-0.008l0.002,2
				L1345.237,1099.253z M1360.249,1099.248l-5.001-0.004l0.001-2l5.001,0.004L1360.249,1099.248z"/>
			<g>
				<defs>
					<path id="XMLID_71_" d="M676.426,1029.198c0,0,11.258,233.292,19.412,237.218c8.154,3.926,296.052,9.965,300.837-1.84
						c4.784-11.805-8.138-220.694-18.084-226.146C968.645,1032.978,675.794,1016.568,676.426,1029.198z"/>
				</defs>
				<use xlink:href="#XMLID_71_"  style="overflow:visible;opacity:0.48;fill:#FE8E9C;"/>
				<clipPath id="XMLID_00000078737755143298171130000005399313048726060939_">
					<use xlink:href="#XMLID_71_"  style="overflow:visible;opacity:0.48;"/>
				</clipPath>
				
					<polygon style="opacity:0.21;clip-path:url(#XMLID_00000078737755143298171130000005399313048726060939_);fill:#FFFFFF;" points="
					746.182,1015.41 663.458,1148.151 675.229,1225.13 763.841,1120.256 694.435,1279.361 788.231,1282.227 862.613,1109.59 
					819.525,1282.779 959.794,1279.765 1001.208,1116.181 1000.266,1021.217 969.676,1019.63 928.206,1181.974 949.544,1017.059 
					841.03,1010.833 795.399,1132.963 826.526,1010.39 				"/>
			</g>
		</g>
		<g>
			<g>
				<defs>
					<path id="XMLID_72_" d="M852.317,972.552c0,0,60.733-128.633,153.974-132.79c93.242-4.157,135.837,142.442,135.837,142.442
						l-131.088,0.812L852.317,972.552z"/>
				</defs>
				<use xlink:href="#XMLID_72_"  style="overflow:visible;fill:#68A9FD;"/>
				<clipPath id="XMLID_00000010308620341286972860000002954118354523951037_">
					<use xlink:href="#XMLID_72_"  style="overflow:visible;"/>
				</clipPath>
				<path style="opacity:0.34;clip-path:url(#XMLID_00000010308620341286972860000002954118354523951037_);fill:#6880E4;" d="
					M970.936,836.458c0,0,31.262,71.976,48.711,87.244s133.774,31.262,133.774,31.262l2.908,43.726
					c0,0-164.309-12.646-185.393-11.101c-21.084,1.545-133.872-12.268-133.872-12.268s26.271-69.795,39.358-82.155
					C889.508,880.807,970.936,836.458,970.936,836.458z"/>
			</g>
			<path style="fill:#7DB9F9;" d="M1006.292,839.762c0,0,81.432-7.539,135.248,140.837
				c49.021,135.156,252.929,349.683,288.874,386.837c3.233,3.341,8.216,4.267,12.433,2.309
				c21.095-9.794,82.782-38.244,86.508-37.781c4.498,0.558,49.481-136.121,61.852-138.629
				c12.37-2.509,130.451-50.162,131.575-61.198c1.125-11.035-241.43-275.311-313.58-319.169S1014.028,829.445,1006.292,839.762z"/>
			<g>
				<defs>
					<path id="XMLID_74_" d="M1036.958,830.424c0,0,64.357,14.142,109.366,99.159c45.009,85.017,60.012,140.132,129.193,218.43
						c69.181,78.298,157.209,196.655,172.79,192.488c15.581-4.168,65.012-24.616,66.679-28.783
						c1.667-4.167,38.597-122.744,46.932-129.412c8.335-6.668,132.032-56.931,130.365-60.168
						c-1.667-3.238-207.557-239.23-222.56-249.232c-15.003-10.002-80.473-74.748-130.65-75.051
						C1288.897,797.552,1153.472,792.944,1036.958,830.424z"/>
				</defs>
				<use xlink:href="#XMLID_74_"  style="overflow:visible;fill:#97C7FA;"/>
				<clipPath id="XMLID_00000107574931304500157330000007783635875762181009_">
					<use xlink:href="#XMLID_74_"  style="overflow:visible;"/>
				</clipPath>
				
					<polygon style="opacity:0.24;clip-path:url(#XMLID_00000107574931304500157330000007783635875762181009_);fill:#F6F9FF;" points="
					1604.847,987.589 1517.749,1391.757 1346.466,1380.078 1386.234,1099.386 1312.677,1271.495 1208.971,1144.332 1301.8,892.484 
					1172.728,1090.251 1030.212,885.714 1232.284,782.994 1447.832,790.294 1509.146,858.907 1461.781,1121.233 1536.234,885.714 
									"/>
			</g>
			<path style="fill:#68A9FD;" d="M1321.188,896.371c-20.64,17.247-22.126,50.505-16.699,74.897
				c5.667,25.472,19.55,50.21,39.701,67.013c20.516,17.107,53.029,28.78,78.172,14.655c10.952-6.152,18.92-16.927,22.957-28.823
				c12.303-36.264-5.962-73.514-30.882-99.595c-22.49-23.537-57.211-53.813-90.431-30.315
				C1323.029,894.894,1322.09,895.617,1321.188,896.371z"/>
		</g>
		<g>
			<path style="fill:#F9C438;" d="M932.208,838.107H422.41c-6.654,0-12.784-5.394-13.691-12.049l-44.533-326.843
				c-0.907-6.654,3.753-12.049,10.407-12.049h509.798c6.654,0,12.784,5.395,13.691,12.049l44.533,326.843
				C943.522,832.713,938.862,838.107,932.208,838.107z"/>
			<g>
				<path style="fill:#F6AB36;" d="M638.292,580.716H416.661c-2.18,0-4.188-1.767-4.485-3.947l-6.433-47.216
					c-0.297-2.18,1.229-3.947,3.409-3.947h221.631c2.18,0,4.188,1.767,4.485,3.947l6.433,47.216
					C641.998,578.949,640.472,580.716,638.292,580.716z"/>
				<g>
					<path style="fill:#F6AB36;" d="M439.49,610.667l6.264,9.946c0.228,0.362,0.607,0.612,1.014,0.67l11.193,1.595
						c1.025,0.146,1.595,1.381,0.964,2.09l-6.888,7.742c-0.25,0.281-0.327,0.687-0.205,1.085l3.364,10.932
						c0.308,1.001-0.639,1.764-1.602,1.292l-10.52-5.161c-0.383-0.188-0.809-0.188-1.14,0l-9.114,5.161
						c-0.835,0.473-1.989-0.291-1.954-1.292l0.385-10.932c0.014-0.398-0.173-0.803-0.5-1.085l-8.997-7.742
						c-0.824-0.709-0.591-1.944,0.394-2.09l10.759-1.595c0.391-0.058,0.702-0.309,0.831-0.67l3.553-9.946
						C437.618,609.756,438.917,609.756,439.49,610.667z"/>
					<path style="fill:#F6AB36;" d="M508.346,610.667l6.264,9.946c0.228,0.362,0.607,0.612,1.014,0.67l11.193,1.595
						c1.025,0.146,1.595,1.381,0.964,2.09l-6.888,7.742c-0.25,0.281-0.327,0.687-0.205,1.085l3.364,10.932
						c0.308,1.001-0.639,1.764-1.602,1.292l-10.521-5.161c-0.382-0.188-0.809-0.188-1.14,0l-9.114,5.161
						c-0.835,0.473-1.989-0.291-1.954-1.292l0.385-10.932c0.014-0.398-0.173-0.803-0.5-1.085l-8.997-7.742
						c-0.824-0.709-0.591-1.944,0.394-2.09l10.759-1.595c0.391-0.058,0.702-0.309,0.831-0.67l3.553-9.946
						C506.474,609.756,507.773,609.756,508.346,610.667z"/>
					<path style="fill:#F6AB36;" d="M577.203,610.667l6.264,9.946c0.228,0.362,0.607,0.612,1.014,0.67l11.193,1.595
						c1.025,0.146,1.595,1.381,0.964,2.09l-6.888,7.742c-0.25,0.281-0.327,0.687-0.205,1.085l3.364,10.932
						c0.308,1.001-0.639,1.764-1.602,1.292l-10.521-5.161c-0.383-0.188-0.809-0.188-1.14,0l-9.114,5.161
						c-0.834,0.473-1.989-0.291-1.954-1.292l0.385-10.932c0.014-0.398-0.173-0.803-0.5-1.085l-8.997-7.742
						c-0.824-0.709-0.591-1.944,0.394-2.09l10.759-1.595c0.391-0.058,0.702-0.309,0.831-0.67l3.553-9.946
						C575.331,609.756,576.629,609.756,577.203,610.667z"/>
					<path style="fill:#F6AB36;" d="M646.06,610.667l6.264,9.946c0.228,0.362,0.607,0.612,1.014,0.67l11.193,1.595
						c1.025,0.146,1.595,1.381,0.964,2.09l-6.887,7.742c-0.25,0.281-0.327,0.687-0.205,1.085l3.364,10.932
						c0.308,1.001-0.639,1.764-1.602,1.292l-10.521-5.161c-0.383-0.188-0.809-0.188-1.14,0l-9.114,5.161
						c-0.834,0.473-1.989-0.291-1.954-1.292l0.385-10.932c0.014-0.398-0.173-0.803-0.5-1.085l-8.997-7.742
						c-0.824-0.709-0.591-1.944,0.394-2.09l10.759-1.595c0.391-0.058,0.702-0.309,0.831-0.67l3.553-9.946
						C644.187,609.756,645.486,609.756,646.06,610.667z"/>
					<path style="fill:#FFFFFF;" d="M714.916,610.667l6.264,9.946c0.228,0.362,0.607,0.612,1.014,0.67l11.193,1.595
						c1.025,0.146,1.595,1.381,0.964,2.09l-6.888,7.742c-0.25,0.281-0.327,0.687-0.205,1.085l3.364,10.932
						c0.308,1.001-0.639,1.764-1.602,1.292l-10.52-5.161c-0.383-0.188-0.809-0.188-1.141,0l-9.114,5.161
						c-0.835,0.473-1.989-0.291-1.954-1.292l0.385-10.932c0.014-0.398-0.173-0.803-0.5-1.085l-8.997-7.742
						c-0.824-0.709-0.591-1.944,0.394-2.09l10.759-1.595c0.391-0.058,0.702-0.309,0.831-0.67l3.553-9.946
						C713.044,609.756,714.342,609.756,714.916,610.667z"/>
				</g>
				<g>
					<path style="fill:#F6AB36;" d="M837.824,699.719H431.972c-1.681,0-3.229-1.363-3.458-3.044l-2.48-18.203
						c-0.229-1.681,0.948-3.043,2.629-3.043h405.852c1.681,0,3.229,1.363,3.458,3.043l2.48,18.203
						C840.682,698.357,839.505,699.719,837.824,699.719z"/>
					<path style="fill:#F6AB36;" d="M843.38,740.495H437.527c-1.681,0-3.229-1.363-3.458-3.043l-2.48-18.202
						c-0.229-1.681,0.948-3.044,2.629-3.044H840.07c1.681,0,3.229,1.363,3.458,3.044l2.48,18.202
						C846.238,739.133,845.061,740.495,843.38,740.495z"/>
					<path style="fill:#F6AB36;" d="M649.62,781.271H444.344c-2.377,0-4.567-1.927-4.891-4.305l-2.136-15.68
						c-0.324-2.378,1.341-4.305,3.718-4.305h205.276c2.377,0,4.567,1.927,4.891,4.305l2.136,15.68
						C653.662,779.344,651.998,781.271,649.62,781.271z"/>
				</g>
			</g>
		</g>
		<g>
			<path style="fill:#F9C438;" d="M1547.742,774.293h-488.373c-7.34,0-14.23-5.951-15.389-13.291l-18.416-116.648
				c-1.159-7.34,3.852-13.291,11.193-13.291h488.372c7.34,0,14.23,5.951,15.389,13.291l18.416,116.648
				C1560.093,768.343,1555.082,774.293,1547.742,774.293z"/>
			<g>
				<path style="fill:#F6AB36;" d="M1100.678,699.412c-3.855-2.735-6.718-6.938-7.464-11.661
					c-1.302-8.244,4.326-14.927,12.57-14.927c8.244,0,15.982,6.683,17.283,14.927c0.746,4.723-0.79,8.926-3.781,11.661
					c15.1,3.6,28.246,15.435,33.378,30.269c3.873-7.365,5.417-16.27,3.902-25.866c-4.001-25.344-27.79-45.889-53.134-45.889
					c-25.344,0-42.645,20.545-38.644,45.889c1.515,9.596,5.87,18.501,12.069,25.866
					C1077.307,714.848,1086.714,703.012,1100.678,699.412z"/>
				<path style="fill:#FFFFFF;" d="M1117.922,749.704c15.748,0,28.386-7.936,34.743-20.023
					c-5.132-14.833-18.278-26.669-33.378-30.269c2.991-2.735,4.527-6.938,3.781-11.661c-1.301-8.244-9.039-14.927-17.283-14.927
					c-8.244,0-13.871,6.683-12.57,14.927c0.746,4.723,3.608,8.926,7.464,11.661c-13.964,3.6-23.372,15.435-23.821,30.269
					C1087.03,741.768,1102.174,749.704,1117.922,749.704z"/>
			</g>
			<g>
				<path style="fill:#F6AB36;" d="M1503.722,696.093h-291.407c-3.505,0-6.794-2.841-7.347-6.346l-4.521-28.634
					c-0.553-3.505,1.839-6.346,5.344-6.346h291.407c3.505,0,6.794,2.841,7.347,6.346l4.52,28.634
					C1509.619,693.252,1507.227,696.093,1503.722,696.093z"/>
				<path style="fill:#F6AB36;" d="M1512.326,750.589h-291.407c-3.505,0-6.794-2.841-7.347-6.346l-4.521-28.634
					c-0.553-3.505,1.839-6.346,5.344-6.346h291.407c3.505,0,6.794,2.841,7.347,6.346l4.521,28.634
					C1518.223,747.748,1515.831,750.589,1512.326,750.589z"/>
			</g>
			<g>
				<path style="fill:#F9C438;" d="M1243.687,677.103c0.604,3.826-2.008,6.927-5.833,6.927s-7.416-3.101-8.02-6.927
					c-0.604-3.826,2.008-6.927,5.833-6.927S1243.083,673.278,1243.687,677.103z"/>
				<path style="fill:#F9C438;" d="M1277.476,677.103c0.604,3.826-2.008,6.927-5.833,6.927c-3.826,0-7.416-3.101-8.02-6.927
					c-0.604-3.826,2.008-6.927,5.833-6.927S1276.872,673.278,1277.476,677.103z"/>
				<path style="fill:#F9C438;" d="M1311.265,677.103c0.604,3.826-2.008,6.927-5.833,6.927c-3.826,0-7.416-3.101-8.02-6.927
					c-0.604-3.826,2.008-6.927,5.833-6.927C1307.07,670.177,1310.661,673.278,1311.265,677.103z"/>
				<path style="fill:#F9C438;" d="M1345.053,677.103c0.604,3.826-2.008,6.927-5.833,6.927c-3.825,0-7.416-3.101-8.02-6.927
					c-0.604-3.826,2.008-6.927,5.833-6.927C1340.859,670.177,1344.449,673.278,1345.053,677.103z"/>
				<path style="fill:#F9C438;" d="M1378.842,677.103c0.604,3.826-2.008,6.927-5.833,6.927c-3.825,0-7.416-3.101-8.02-6.927
					c-0.604-3.826,2.008-6.927,5.833-6.927C1374.647,670.177,1378.238,673.278,1378.842,677.103z"/>
				<path style="fill:#F9C438;" d="M1412.631,677.103c0.604,3.826-2.008,6.927-5.833,6.927s-7.416-3.101-8.02-6.927
					c-0.604-3.826,2.008-6.927,5.833-6.927S1412.027,673.278,1412.631,677.103z"/>
				<path style="fill:#F9C438;" d="M1446.419,677.103c0.604,3.826-2.008,6.927-5.833,6.927s-7.416-3.101-8.02-6.927
					c-0.604-3.826,2.008-6.927,5.833-6.927S1445.815,673.278,1446.419,677.103z"/>
				<path style="fill:#F9C438;" d="M1480.208,677.103c0.604,3.826-2.008,6.927-5.833,6.927s-7.416-3.101-8.02-6.927
					c-0.604-3.826,2.008-6.927,5.833-6.927S1479.604,673.278,1480.208,677.103z"/>
			</g>
			<g>
				<path style="fill:#F9C438;" d="M1252.027,729.927c0.604,3.826-2.008,6.927-5.833,6.927c-3.825,0-7.416-3.101-8.02-6.927
					c-0.604-3.826,2.008-6.927,5.833-6.927C1247.832,723,1251.423,726.101,1252.027,729.927z"/>
				<path style="fill:#F9C438;" d="M1285.815,729.927c0.604,3.826-2.008,6.927-5.833,6.927c-3.825,0-7.416-3.101-8.02-6.927
					c-0.604-3.826,2.008-6.927,5.833-6.927S1285.212,726.101,1285.815,729.927z"/>
				<path style="fill:#F9C438;" d="M1319.604,729.927c0.604,3.826-2.008,6.927-5.833,6.927s-7.416-3.101-8.02-6.927
					c-0.604-3.826,2.008-6.927,5.833-6.927S1319,726.101,1319.604,729.927z"/>
				<path style="fill:#F9C438;" d="M1353.393,729.927c0.604,3.826-2.008,6.927-5.833,6.927s-7.416-3.101-8.02-6.927
					c-0.604-3.826,2.008-6.927,5.833-6.927S1352.789,726.101,1353.393,729.927z"/>
				<path style="fill:#F9C438;" d="M1387.182,729.927c0.604,3.826-2.008,6.927-5.833,6.927c-3.825,0-7.416-3.101-8.02-6.927
					c-0.604-3.826,2.008-6.927,5.833-6.927S1386.578,726.101,1387.182,729.927z"/>
				<path style="fill:#F9C438;" d="M1420.97,729.927c0.604,3.826-2.008,6.927-5.833,6.927c-3.825,0-7.416-3.101-8.02-6.927
					c-0.604-3.826,2.008-6.927,5.833-6.927S1420.366,726.101,1420.97,729.927z"/>
				<path style="fill:#F9C438;" d="M1454.759,729.927c0.604,3.826-2.008,6.927-5.833,6.927c-3.826,0-7.417-3.101-8.02-6.927
					c-0.604-3.826,2.008-6.927,5.833-6.927C1450.564,723,1454.155,726.101,1454.759,729.927z"/>
				<path style="fill:#F9C438;" d="M1488.547,729.927c0.604,3.826-2.008,6.927-5.833,6.927c-3.826,0-7.417-3.101-8.021-6.927
					c-0.604-3.826,2.008-6.927,5.833-6.927C1484.353,723,1487.943,726.101,1488.547,729.927z"/>
			</g>
		</g>
		<path style="fill:#7DB9F9;" d="M1378.531,542.878c-1.296-1.258-1.887-3.064-1.582-4.844
			c3.258-19.022,27.843-119.41,96.332-149.997c64.101-28.627,142.395-85.224,153.249-91.426c10.854-6.202,30.66,69.719,41.514,72.82
			c10.854,3.101,59.216,33.262,63.573,45.001c4.357,11.739-158.965,66.639-172.516,96.099
			c-13.551,29.46-33.49,97.685-41.352,100.786c-7.862,3.101-70.679-13.955-81.911-18.607
			C1425.995,588.633,1387.814,551.893,1378.531,542.878z"/>
		<g>
			<defs>
				<path id="XMLID_73_" d="M1386.453,534.959c0,0,24.487-90.356,64.599-120.116c40.112-29.761,65.991-36.23,95.32-54.346
					c29.329-18.115,78.93-54.345,80.224-51.758c1.294,2.588,25.448,62.54,29.329,64.697c3.882,2.157,66.422,37.524,67.285,40.543
					c0.863,3.019-156.567,55.639-170.8,86.263c-14.233,30.623-33.211,101.359-37.093,103.084
					c-3.882,1.725-75.107-17.422-79.852-20.441C1430.722,579.866,1382.604,535.838,1386.453,534.959z"/>
			</defs>
			<use xlink:href="#XMLID_73_"  style="overflow:visible;fill:#97C7FA;"/>
			<clipPath id="XMLID_00000163055882222240698550000003709802337458890659_">
				<use xlink:href="#XMLID_73_"  style="overflow:visible;"/>
			</clipPath>
			
				<polygon style="opacity:0.24;clip-path:url(#XMLID_00000163055882222240698550000003709802337458890659_);fill:#F6F9FF;" points="
				1612.901,300.244 1653.462,474.23 1578.977,525.172 1557.851,413.152 1559.101,544.346 1538.417,611.691 1456.557,480.924 
				1495.407,619.568 1419.684,589.331 1390.923,465.437 1439.493,388.74 1500.79,464.413 1481.621,366.616 1554.724,320.155 
				1584.877,394.64 1576.027,308.608 			"/>
		</g>
		<path style="fill:#68A9FD;" d="M1521.682,409.67c-0.943,0.301-1.852,0.614-2.723,0.935c-14.574,5.382-22.523,18.764-23.482,33.937
			c-0.442,6.983,1.182,14.224,5.313,19.87c4.969,6.79,13.699,10.353,21.992,9.752c9.351-0.677,16.405-8.755,22.36-15.114
			c5.709-6.095,14.76-9.437,18.002-17.636c3.672-9.286,1.901-21.167-5.293-28.263C1548.198,403.63,1533.414,405.93,1521.682,409.67z
			"/>
		<g>
			<circle style="fill:#D4DFFF;" cx="829.392" cy="1460.824" r="42.568"/>
			<circle style="fill:#D4DFFF;" cx="969.061" cy="1460.824" r="42.568"/>
			<circle style="fill:#D4DFFF;" cx="1108.729" cy="1460.824" r="42.568"/>
			<circle style="fill:#D4DFFF;" cx="1248.397" cy="1460.824" r="42.568"/>
		</g>
	</g>
	<g>
		<g>
			
				<ellipse transform="matrix(0.6548 -0.7558 0.7558 0.6548 144.881 2118.7129)" style="fill:#D4DFFF;" cx="2391.865" cy="900.75" rx="18.222" ry="21.139"/>
			
				<ellipse transform="matrix(0.6548 -0.7558 0.7558 0.6548 171.2808 2176.4858)" style="fill:#D4DFFF;" cx="2468.299" cy="900.737" rx="18.222" ry="21.139"/>
			
				<ellipse transform="matrix(0.6548 -0.7558 0.7558 0.6548 197.6843 2234.2649)" style="fill:#D4DFFF;" cx="2544.733" cy="900.724" rx="18.222" ry="21.139"/>
			
				<ellipse transform="matrix(0.6548 -0.7558 0.7558 0.6548 224.0662 2292.0059)" style="fill:#D4DFFF;" cx="2621.167" cy="900.71" rx="18.222" ry="21.139"/>
		</g>
		<g>
			
				<ellipse transform="matrix(0.6548 -0.7558 0.7558 0.6548 98.8824 2148.614)" style="fill:#D4DFFF;" cx="2401.611" cy="966.057" rx="18.222" ry="21.139"/>
			
				<ellipse transform="matrix(0.6548 -0.7558 0.7558 0.6548 125.2818 2206.3867)" style="fill:#D4DFFF;" cx="2478.045" cy="966.043" rx="18.222" ry="21.139"/>
			<path style="fill:#D4DFFF;" d="M2574.205,966.026c1.609,10.784-5.918,19.527-16.813,19.529
				c-10.895,0.002-21.031-8.739-22.64-19.522c-1.609-10.784,5.918-19.527,16.813-19.529
				C2562.459,946.502,2572.596,955.243,2574.205,966.026z"/>
			
				<ellipse transform="matrix(0.6548 -0.7558 0.7558 0.6548 178.0719 2321.9153)" style="fill:#D4DFFF;" cx="2630.913" cy="966.017" rx="18.222" ry="21.139"/>
		</g>
		<g>
			<path style="fill:#D4DFFF;" d="M2431.083,1031.359c1.609,10.784-5.918,19.527-16.813,19.529
				c-10.895,0.002-21.031-8.739-22.64-19.522c-1.609-10.784,5.918-19.528,16.813-19.529S2429.474,1020.576,2431.083,1031.359z"/>
			
				<ellipse transform="matrix(0.6548 -0.7558 0.7558 0.6548 79.2773 2236.2756)" style="fill:#D4DFFF;" cx="2487.791" cy="1031.349" rx="18.222" ry="21.139"/>
			<path style="fill:#D4DFFF;" d="M2583.951,1031.333c1.609,10.784-5.918,19.527-16.813,19.529
				c-10.895,0.002-21.031-8.739-22.64-19.522c-1.609-10.784,5.918-19.528,16.813-19.529
				C2572.205,1011.808,2582.342,1020.549,2583.951,1031.333z"/>
			
				<ellipse transform="matrix(0.6548 -0.7558 0.7558 0.6548 132.0784 2351.8264)" style="fill:#D4DFFF;" cx="2640.658" cy="1031.323" rx="18.222" ry="21.139"/>
		</g>
		<g>
			
				<ellipse transform="matrix(0.6548 -0.7558 0.7558 0.6548 6.8997 2208.4448)" style="fill:#D4DFFF;" cx="2421.102" cy="1096.669" rx="18.222" ry="21.139"/>
			
				<ellipse transform="matrix(0.6548 -0.7558 0.7558 0.6548 33.279 2266.1758)" style="fill:#D4DFFF;" cx="2497.536" cy="1096.656" rx="18.222" ry="21.139"/>
			
				<ellipse transform="matrix(0.6548 -0.7558 0.7558 0.6548 59.6778 2323.9485)" style="fill:#D4DFFF;" cx="2573.97" cy="1096.642" rx="18.222" ry="21.139"/>
			
				<ellipse transform="matrix(0.6548 -0.7558 0.7558 0.6548 86.0851 2381.7378)" style="fill:#D4DFFF;" cx="2650.404" cy="1096.629" rx="18.222" ry="21.139"/>
		</g>
	</g>
	<g>
		<g>
			<path style="fill:#D4DFFF;" d="M349.838,1064.036c1.119,7.498-4.115,13.578-11.69,13.579
				c-7.575,0.001-14.623-6.076-15.742-13.574c-1.119-7.498,4.115-13.578,11.69-13.579
				C341.671,1050.46,348.719,1056.538,349.838,1064.036z"/>
			
				<ellipse transform="matrix(0.6548 -0.7558 0.7558 0.6548 -669.8212 661.5143)" style="fill:#D4DFFF;" cx="389.268" cy="1064.029" rx="12.67" ry="14.698"/>
			
				<ellipse transform="matrix(0.6548 -0.7558 0.7558 0.6548 -651.4705 701.6854)" style="fill:#D4DFFF;" cx="442.413" cy="1064.02" rx="12.67" ry="14.698"/>
			<path style="fill:#D4DFFF;" d="M509.275,1064.008c1.119,7.498-4.115,13.578-11.69,13.579
				c-7.575,0.001-14.623-6.076-15.742-13.574c-1.119-7.498,4.115-13.578,11.69-13.579
				C501.108,1050.433,508.156,1056.51,509.275,1064.008z"/>
		</g>
		<g>
			
				<ellipse transform="matrix(0.6548 -0.7558 0.7558 0.6548 -720.1547 642.1464)" style="fill:#D4DFFF;" cx="342.898" cy="1109.447" rx="12.67" ry="14.698"/>
			<path style="fill:#D4DFFF;" d="M409.76,1109.435c1.119,7.498-4.115,13.578-11.69,13.579c-7.575,0.001-14.623-6.076-15.742-13.574
				c-1.119-7.498,4.115-13.578,11.69-13.579C401.593,1095.859,408.641,1101.937,409.76,1109.435z"/>
			<path style="fill:#D4DFFF;" d="M462.906,1109.426c1.119,7.498-4.115,13.578-11.69,13.579
				c-7.575,0.001-14.623-6.076-15.742-13.574c-1.119-7.498,4.115-13.578,11.69-13.579
				C454.739,1095.85,461.787,1101.928,462.906,1109.426z"/>
			
				<ellipse transform="matrix(0.6548 -0.7558 0.7558 0.6548 -665.0955 762.6387)" style="fill:#D4DFFF;" cx="502.335" cy="1109.419" rx="12.67" ry="14.698"/>
		</g>
		<g>
			
				<ellipse transform="matrix(0.6548 -0.7558 0.7558 0.6548 -752.1383 662.9497)" style="fill:#D4DFFF;" cx="349.675" cy="1154.855" rx="12.67" ry="14.698"/>
			<path style="fill:#D4DFFF;" d="M416.536,1154.843c1.119,7.498-4.115,13.578-11.69,13.579
				c-7.575,0.001-14.623-6.076-15.742-13.574c-1.119-7.498,4.115-13.578,11.69-13.579
				C408.369,1141.268,415.417,1147.345,416.536,1154.843z"/>
			<path style="fill:#D4DFFF;" d="M469.682,1154.834c1.119,7.498-4.115,13.578-11.69,13.579
				c-7.575,0.001-14.623-6.076-15.742-13.574c-1.119-7.498,4.115-13.578,11.69-13.579
				C461.515,1141.259,468.563,1147.336,469.682,1154.834z"/>
			
				<ellipse transform="matrix(0.6548 -0.7558 0.7558 0.6548 -697.0806 783.45)" style="fill:#D4DFFF;" cx="509.112" cy="1154.827" rx="12.67" ry="14.698"/>
		</g>
		<g>
			<path style="fill:#D4DFFF;" d="M370.167,1200.261c1.119,7.498-4.115,13.578-11.69,13.579
				c-7.575,0.001-14.623-6.076-15.742-13.574c-1.119-7.498,4.115-13.578,11.69-13.579
				C362,1186.685,369.048,1192.763,370.167,1200.261z"/>
			
				<ellipse transform="matrix(0.6548 -0.7558 0.7558 0.6548 -765.7599 723.8968)" style="fill:#D4DFFF;" cx="409.597" cy="1200.254" rx="12.67" ry="14.698"/>
			
				<ellipse transform="matrix(0.6548 -0.7558 0.7558 0.6548 -747.4149 764.0822)" style="fill:#D4DFFF;" cx="462.742" cy="1200.245" rx="12.67" ry="14.698"/>
			<path style="fill:#D4DFFF;" d="M529.604,1200.233c1.119,7.498-4.115,13.578-11.69,13.579
				c-7.575,0.001-14.623-6.076-15.742-13.574c-1.119-7.498,4.115-13.578,11.69-13.579
				C521.437,1186.657,528.485,1192.735,529.604,1200.233z"/>
		</g>
	</g>
	<ellipse style="fill:#D4DFFF;" cx="2095.644" cy="1807.786" rx="366.815" ry="30.291"/>
	<g>
		<g>
			<g>
				<defs>
					<path id="XMLID_87_" d="M1729.783,1072.554c0,0-20.2,13.931-21.497,14.19c-1.297,0.259-57.144-0.402-47.028,9.13
						c2.67,2.516,39.346,9.754,39.346,9.754l21.052,23.943l11.517-8.807l21.576-13.183L1729.783,1072.554z"/>
				</defs>
				<use xlink:href="#XMLID_87_"  style="overflow:visible;fill:#FE8E9C;"/>
				<clipPath id="XMLID_00000180336758013637771460000015977325396910637495_">
					<use xlink:href="#XMLID_87_"  style="overflow:visible;"/>
				</clipPath>
				<path style="clip-path:url(#XMLID_00000180336758013637771460000015977325396910637495_);fill:#E57492;" d="M1700.605,1105.628
					c0,0,29.09,7.593,28.276,8.272c-0.815,0.679-27.421-4.072-27.828-4.344C1700.645,1109.285,1700.605,1105.628,1700.605,1105.628"
					/>
			</g>
			<g>
				<g>
					<defs>
						<path id="XMLID_77_" d="M2271.709,1662.201l-105.264-434.663c19.872-75.725,37.776-166.643,19.494-218.607l-202.396,10.559
							c0,0-22.958,102.283-17.376,251.255c1.979,52.829,46.096,423.42,46.096,423.42h96.706c0,0-5.197-133.653-7.597-224.544
							l80.708,224.544L2271.709,1662.201z"/>
					</defs>
					<use xlink:href="#XMLID_77_"  style="overflow:visible;fill:#1B3D9E;"/>
					<clipPath id="XMLID_00000173863170164378746590000003358747486489880972_">
						<use xlink:href="#XMLID_77_"  style="overflow:visible;"/>
					</clipPath>
					<path style="clip-path:url(#XMLID_00000173863170164378746590000003358747486489880972_);fill:#1C056D;" d="M2229.639,1678.832
						c-0.597,0-1.161-0.358-1.395-0.947c-5.537-13.969-135.653-342.454-138.73-372.052c-3.069-29.518,12.249-273.802,12.902-284.186
						c0.052-0.828,0.8-1.46,1.591-1.403c0.827,0.052,1.455,0.765,1.403,1.591c-0.16,2.541-15.956,254.418-12.912,283.688
						c3.034,29.189,137.181,367.84,138.535,371.257c0.305,0.771-0.071,1.642-0.842,1.947
						C2230.01,1678.799,2229.823,1678.832,2229.639,1678.832z"/>
					<path style="clip-path:url(#XMLID_00000173863170164378746590000003358747486489880972_);fill:#1C056D;" d="M2058.18,1701.583
						c-0.734,0-1.376-0.54-1.483-1.288c-0.505-3.538-50.567-354.229-51.55-386.642c-0.98-32.364,1.952-271.825,1.982-274.24
						c0.01-0.822,0.68-1.481,1.5-1.481c0.006,0,0.012,0,0.018,0c0.828,0.011,1.491,0.69,1.482,1.518
						c-0.03,2.414-2.961,241.812-1.983,274.112c0.977,32.248,51.016,382.773,51.522,386.31c0.117,0.82-0.453,1.58-1.273,1.697
						C2058.322,1701.578,2058.25,1701.583,2058.18,1701.583z"/>
				</g>
				<g>
					<path style="fill:#1C056D;" d="M2193.095,1047.99c-0.416-17.211-7.56-42.718-7.56-42.718s-124.925,22.649-151.696,19.369
						c-26.772-3.281-50.297-5.151-50.297-5.151l-2.652,15.595c0,0,17.859,18.181,37.532,29.397l-0.04-0.018
						c0,0,8.587,118.165,11.9,151.296c3.313,33.13,13.073,73.435,13.073,73.435c-5.943-25.47-7.79-217.333-7.79-217.333
						C2060.553,1078.407,2193.095,1047.99,2193.095,1047.99z"/>
					<path style="fill:#1C056D;" d="M2053.24,1343.392c0,0,19.709,184.415,50.673,210.075l-2.542-83.847L2053.24,1343.392z"/>
				</g>
				<path style="fill:#FFFFFF;" d="M2095.327,608.364c0,0,82.862,57.729,97.768,97.007c14.906,39.279-24.557,309.15-24.557,309.15
					s-166.275,22.359-184.996,4.969c-18.72-17.39-19.384-279.489-15.325-304.332c4.058-24.843,52.882-97.571,52.882-97.571
					L2095.327,608.364z"/>
				<path style="fill:#7DB9F9;" d="M2021.099,617.587c0,0-59.433,57.213-72.025,90.34l0,0v0c-0.703,1.849-1.261,3.624-1.654,5.308
					c-10.41,33.355-66.782,213.055-76.687,225.12c-10.921,13.303-149.934,119.82-147.948,123.537
					c1.985,3.716,46.682,70.031,54.625,70.244c6.975,0.187,137.198-102.852,168.837-127.971c1.015,15.45,2.471,24.902,4.508,25.193
					c11.232,1.604,41.719-8.825,41.719-8.825s15.287-248.665,19.54-357.237C2013.216,632.602,2024.755,618.251,2021.099,617.587z"/>
				<path style="fill:#6880E4;" d="M1830.839,848.653l-46.891,0.822c-1.702,0.03-3.322-1.478-3.618-3.368l-17.574-111.892
					c-0.297-1.89,0.842-3.446,2.544-3.476l46.891-0.822c1.702-0.03,3.322,1.478,3.619,3.368l17.573,111.892
					C1833.679,847.067,1832.541,848.623,1830.839,848.653z"/>
				<path style="fill:#FE8E9C;" d="M1854.024,825.812c0,0-17.89-11.723-18.217-13.033c-0.327-1.309-2.188-46.463-14.722-47.51
					c-3.107-0.26,1.2,28.47-1.09,28.798c-2.291,0.327-49.236-12.6-50.855-11.467s-0.699,11.376,4.426,14.835
					c0,0-5.236,8.64-0.865,12.849l3.26,2.4c0,0-4.231,6.181-1.802,9.743s5.019,4.533,5.019,4.533s-3.724,2.59-2.914,7.123
					c0.809,4.533,3.028,8.524,7.828,11.223c4.8,2.7,31.475,5.606,31.475,5.606l21.596,14.216L1854.024,825.812z"/>
				<g>
					<g>
						<defs>
							<path id="XMLID_76_" d="M2202.993,699.357c-19.449-39.12-60.112-83.743-107.667-90.992c0,0-0.606,41.639-1.58,83.444
								c-24.053,58.263-66.448,158.024-77.434,164.729c-15.578,9.509-162.411-59.014-162.411-59.014l-38.033,88.683
								c0,0,170.159,87.648,223.428,97.552c18.852,3.505,45.467-18.465,71.771-50.243c8.76,57.165,17.779,105.916,20.777,105.916
								c6.613,0,82.156-15.115,85.004-20.782C2219.698,1012.981,2226.715,747.069,2202.993,699.357z"/>
						</defs>
						<use xlink:href="#XMLID_76_"  style="overflow:visible;fill:#7DB9F9;"/>
						<clipPath id="XMLID_00000039126181774363135340000013034279403401468316_">
							<use xlink:href="#XMLID_76_"  style="overflow:visible;"/>
						</clipPath>
						<path style="opacity:0.34;clip-path:url(#XMLID_00000039126181774363135340000013034279403401468316_);fill:#6880E4;" d="
							M2037.104,931.01c-33.77,0-200.542-89.216-207.9-93.162c-0.73-0.392-1.005-1.301-0.613-2.031s1.302-1.003,2.031-0.613
							c64.4,34.537,190.954,98.335,208.932,92.519c9.416-3.037,34.975-39.215,70.125-99.259
							c28.397-48.51,54.858-98.803,57.834-108.101c0.253-0.789,1.096-1.223,1.886-0.972c0.789,0.253,1.224,1.097,0.972,1.886
							c-3.021,9.441-29.612,60.034-58.103,108.702c-46.191,78.905-64.536,98.258-71.792,100.599
							C2039.573,930.869,2038.441,931.01,2037.104,931.01z"/>
						<path style="opacity:0.34;clip-path:url(#XMLID_00000039126181774363135340000013034279403401468316_);fill:#6880E4;" d="
							M2195.169,798.8c-0.163,0-0.329-0.027-0.492-0.083c-0.782-0.271-1.196-1.125-0.926-1.908
							c0.138-0.398,13.309-40.225-25.804-74.865c-20.542-18.192-39.547-25.016-51.872-27.536
							c-13.345-2.729-21.96-1.143-22.045-1.126c-0.816,0.154-1.6-0.377-1.756-1.19c-0.157-0.813,0.373-1.599,1.186-1.756
							c1.454-0.282,36.002-6.482,76.476,29.362c21.224,18.796,27.352,38.991,28.756,52.622c1.524,14.81-1.958,25.045-2.106,25.474
							C2196.369,798.412,2195.789,798.8,2195.169,798.8z"/>
					</g>
					<path style="opacity:0.34;fill:#6880E4;" d="M2111.068,933.515c0,0,80.715-124.045,91.926-155.698
						c0,0-67.447,170.164-86.478,189.932L2111.068,933.515z"/>
				</g>
				<path style="fill:#FFFFFF;" d="M2003.547,726.141c0,3.614-2.93,6.544-6.544,6.544s-6.544-2.93-6.544-6.544
					c0-3.614,2.93-6.544,6.544-6.544S2003.547,722.527,2003.547,726.141z"/>
				<path style="fill:#FFFFFF;" d="M1998.927,777.817c0,3.614-2.93,6.544-6.544,6.544s-6.544-2.93-6.544-6.544
					s2.93-6.544,6.544-6.544S1998.927,774.203,1998.927,777.817z"/>
				<path style="fill:#FFFFFF;" d="M1998.927,829.493c0,3.614-2.93,6.544-6.544,6.544s-6.544-2.93-6.544-6.544
					s2.93-6.544,6.544-6.544S1998.927,825.879,1998.927,829.493z"/>
				<path style="opacity:0.34;fill:#6880E4;" d="M1952.483,836.068c0.645-21.978,3.863-132.564,3.232-130.672
					c-0.7,2.101-19.443,128.068-19.443,128.068l16.099,6.39c0,0,20.016,8.787,50.034,15.768l0.949-20.677
					C2003.355,834.945,1986.848,846.168,1952.483,836.068z"/>
				<path style="opacity:0.34;fill:#6880E4;" d="M1946.248,949.009l-66.427-31.005c0,0,52.906,31.884,51.479,37.212
					c-1.427,5.329-2.333,62.639-2.333,62.639l17.281-13.69v-38.021l49.431,25.374l2.247-20.813L1946.248,949.009z"/>
				<g>
					<g>
						<defs>
							<path id="XMLID_75_" d="M2067.324,450.565c-9.188-10.266-42.049-20.916-68.198-15.317c-14.74,3.156-26.005,15.1-28.818,29.91
								c-6.368,33.52-18.692,112.551,5.206,119.126c10.641,2.928,22.996,0.092,34.79-5.421
								c2.946,20.224,13.766,66.161,15.666,72.293c2.67,8.618,75.034-29.544,69.357-42.791
								c-3.848-8.978-39.705-68.247-39.705-68.247C2060.918,526.241,2080.107,464.848,2067.324,450.565z"/>
						</defs>
						<use xlink:href="#XMLID_75_"  style="overflow:visible;fill:#FE8E9C;"/>
						<clipPath id="XMLID_00000070080702374822591610000006107514863630128312_">
							<use xlink:href="#XMLID_75_"  style="overflow:visible;"/>
						</clipPath>
						<path style="clip-path:url(#XMLID_00000070080702374822591610000006107514863630128312_);fill:#E57492;" d="M1964.082,485.351
							c0.931-0.233,19.81-5.803,24.127-11.358c0,0,5.911,5.54,16.583,2.852c10.673-2.688,30.375-16.367,30.375-16.367
							s0.954,22.595,12.134,27.989c11.181,5.393,0,0,0,0s-0.477-37.132-4.582-38.61c-4.105-1.478-79.208,1.149-81.308,6.896
							C1959.311,462.499,1964.082,485.351,1964.082,485.351z"/>
					</g>
					<path style="fill:#FFFFFF;" d="M1970.321,540.674c0,0,11.732,9.052,28.254-4.31c0,0-0.848,12.992-12.394,15.055
						C1970.958,554.141,1970.321,540.674,1970.321,540.674z"/>
					<path style="fill:#E57492;" d="M1994.981,476.845c0,0-28.72,38.556-22.435,42.682c6.285,4.126,26.322-5.172,26.322-5.172l0,0
						c-0.219,2.759-2.041,5.125-4.651,6.045c-7.556,2.663-22.221,7.196-25.356,1.167
						C1963.353,510.972,1994.981,476.845,1994.981,476.845z"/>
					<path style="fill:#E57492;" d="M2010.304,578.862c0,0,23.647-16.422,31.367-26.275c0,0-6.34,33.508-28.372,43.092
						L2010.304,578.862z"/>
				</g>
				<path style="fill:#1B3D9E;" d="M2038.806,456.476c0.752-4.84-29.932,12.284-50.204,12.125c-0.989-0.008-2.184-0.158-2.591-1.059
					c-0.235-0.52-0.112-1.124,0.038-1.674c0.764-2.798,2.141-5.427,4.008-7.646c-9.12,8.699-19.957,15.59-31.702,20.159
					c-3.035,1.181-6.203,2.221-9.46,2.189c-3.257-0.032-6.652-1.296-8.547-3.946c-1.377-1.925-1.833-4.354-2.037-6.712
					c-1.026-11.858,3.613-23.887,11.593-32.718c7.98-8.831,19.079-14.559,30.725-17.016c-7.015,7.33-17.677,13.051-27.751,14.251
					c-1.689,0.201-3.479,0.289-5.013-0.445c-3.649-1.747-3.855-6.859-2.971-10.807c1.971-8.794,6.734-16.94,13.43-22.972
					c5.98-5.387,13.328-9.025,20.82-11.962c7.072-2.772,14.419-4.993,21.979-5.728c24.877-2.417,50.419,13.336,59.427,36.65
					c0.769-4.419,5.341-7.545,9.826-7.526c4.486,0.019,8.659,2.668,11.441,6.186s4.355,7.832,5.581,12.147
					c5.411,19.052,4.78,39.661-1.038,58.592c-5.818,18.932-16.677,37.605-30.739,51.553c0,0-4.565-29.745-3.313-34.126
					c0,0,18.777-9.701,13.77-25.974c-5.007-16.273-18.776,8.449-18.776,8.449S2037.028,467.921,2038.806,456.476z"/>
			</g>
		</g>
		<g>
			<path style="fill:#FE8E9C;" d="M2033.778,1694.165l5.02,43.605c0,0,20.582,12.55,32.128,11.546s20.08-13.554,20.08-13.554
				v-41.597H2033.778z"/>
			<g>
				<defs>
					<path id="XMLID_85_" d="M2038.733,1737.203c0,0-102.052,50.452-104.204,56.191c-1.542,4.111-2.715,13.008-3.257,17.724
						c-0.184,1.602,1.134,2.973,2.741,2.857c23.03-1.661,167.877-12.202,170.518-14.843c2.869-2.869-2.152-51.288-3.945-54.874
						s-9.581-8.496-9.581-8.496S2069.478,1757.973,2038.733,1737.203z"/>
				</defs>
				<use xlink:href="#XMLID_85_"  style="overflow:visible;fill:#1B3D9E;"/>
				<clipPath id="XMLID_00000179612630961591048520000011725856177775350431_">
					<use xlink:href="#XMLID_85_"  style="overflow:visible;"/>
				</clipPath>
				<path style="clip-path:url(#XMLID_00000179612630961591048520000011725856177775350431_);fill:#1C056D;" d="M1962.075,1774.872
					c0,0,14.356,5.479,18.943,26.814c0,0,125.221-12.363,126.019-11.366c0.797,0.997,2.393,10.369-0.199,10.967
					s-169.288,17.148-173.674,15.553c-4.387-1.595-5.384-1.196-5.384-4.387c0-3.19,2.393-21.136,4.985-23.329
					C1935.356,1786.931,1962.075,1774.872,1962.075,1774.872z"/>
				<path style="clip-path:url(#XMLID_00000179612630961591048520000011725856177775350431_);fill:#1C056D;" d="M2063.026,1757.554
					c-7.116,0-14.786-2.634-22.362-7.707c-6.432-4.308-10.486-8.782-10.655-8.971l1.486-1.338
					c0.159,0.177,16.134,17.69,34.108,15.889c18.09-1.809,32.865-16.984,33.013-17.137l1.442,1.385
					c-0.621,0.646-15.42,15.859-34.256,17.742C2064.888,1757.509,2063.961,1757.554,2063.026,1757.554z"/>
			</g>
			<path style="fill:#1C056D;" d="M2019.824,1746.649c0,0-13.721-22.742-31.349-24.88c-17.629-2.138-25.487,11.455-20.177,20.588
				c5.31,9.133,47.576,7.016,47.576,7.016s-40.488-5.92-41.996-10.568c-1.508-4.648,3.266-13.19,8.793-13.19
				C1988.199,1725.615,2019.824,1746.649,2019.824,1746.649z"/>
			<path style="fill:#1C056D;" d="M2018.327,1748.328c0,0,1.898-30.984,13.242-33.863c11.344-2.878,15.915,1.355,18.794,14.73
				c2.878,13.376-30.538,20.178-30.538,20.178s25.908-14.292,26.302-17.883c0.394-3.591-4.334-13.993-7.249-13.993
				s-11.032,1.609-11.977,4.271C2025.954,1724.432,2020.781,1747.282,2018.327,1748.328z"/>
			
				<ellipse transform="matrix(0.2298 -0.9732 0.9732 0.2298 -131.8334 3386.2188)" style="fill:#1C056D;" cx="2073.421" cy="1776.399" rx="11.029" ry="11.029"/>
		</g>
		<g>
			<path style="fill:#FE8E9C;" d="M2197.665,1681.68l18.924,39.604c0,0,23.544,5.176,34.136,0.473
				c10.592-4.703,14.582-19.346,14.582-19.346l-11.615-33.785L2197.665,1681.68z"/>
			<g>
				<defs>
					<path id="XMLID_86_" d="M2216.343,1720.769c0,0-80.104,80.891-80.274,87.017c-0.121,4.389,1.662,13.184,2.683,17.82
						c0.347,1.574,2.039,2.443,3.521,1.811c21.239-9.058,154.79-66.12,156.428-69.476c1.781-3.646-18.71-47.802-21.572-50.61
						c-2.862-2.809-11.823-4.92-11.823-4.92S2252.17,1730.414,2216.343,1720.769z"/>
				</defs>
				<use xlink:href="#XMLID_86_"  style="overflow:visible;fill:#1B3D9E;"/>
				<clipPath id="XMLID_00000085966546514396330630000014430051363742804110_">
					<use xlink:href="#XMLID_86_"  style="overflow:visible;"/>
				</clipPath>
				<path style="clip-path:url(#XMLID_00000085966546514396330630000014430051363742804110_);fill:#1C056D;" d="M2156.097,1781.315
					c0,0,15.358,0.513,26.631,19.198c0,0,114.399-52.403,115.477-51.72c1.079,0.684,5.634,9.027,3.377,10.436
					c-2.257,1.409-154.515,71.256-159.182,71.174c-4.667-0.082-5.48,0.619-6.518-2.398c-1.037-3.017-4.609-20.766-2.871-23.683
					S2156.097,1781.315,2156.097,1781.315z"/>
				<path style="clip-path:url(#XMLID_00000085966546514396330630000014430051363742804110_);fill:#1C056D;" d="M2234.908,1733.85
					c-3.977,0-8.214-0.583-12.629-1.753c-7.482-1.981-12.771-4.896-12.992-5.019l0.971-1.748
					c0.208,0.116,21.029,11.472,37.421,3.937c16.519-7.592,25.557-26.747,25.646-26.939l1.814,0.841
					c-0.377,0.813-9.426,20.011-26.625,27.915C2244.507,1732.925,2239.915,1733.85,2234.908,1733.85z"/>
			</g>
			<path style="fill:#1C056D;" d="M2201.532,1735.849c0,0-20.369-17.045-37.735-13.336c-17.366,3.71-20.378,19.119-12.387,26.03
				c7.99,6.91,47.272-8.833,47.272-8.833s-40.213,7.565-43.15,3.66s-1.2-13.535,4.027-15.332
				C2164.786,1726.24,2201.532,1735.849,2201.532,1735.849z"/>
			<path style="fill:#1C056D;" d="M2200.662,1737.923c0,0-8.279-29.918,1.513-36.328c9.792-6.41,15.491-3.894,22.562,7.82
				c7.071,11.713-22.319,29.01-22.319,29.01s19.853-21.938,19.058-25.463c-0.795-3.524-8.647-11.823-11.405-10.875
				c-2.757,0.948-9.909,5.108-9.938,7.933C2200.106,1712.846,2202.643,1736.137,2200.662,1737.923z"/>
			<path style="fill:#1C056D;" d="M2272.319,1742.972c1.98,5.76-1.084,12.035-6.844,14.015c-5.76,1.98-12.035-1.084-14.015-6.844
				c-1.98-5.76,1.084-12.035,6.844-14.015C2264.064,1734.147,2270.339,1737.212,2272.319,1742.972z"/>
		</g>
	</g>
	<ellipse style="fill:#D4DFFF;" cx="1099.505" cy="1813.982" rx="480.916" ry="45.885"/>
	<g>
		<path style="fill:#7DB9F9;" d="M1717.976,504.571c18.844,3.609,61.752,12.759,74.107,18.005
			c4.979,2.115,15.854,9.989,39.39,35.496c7.461,8.086,28.105,33.01,31.781,37.259c4.533,5.239-0.96,2.73-17.046,17.479
			c-2.158,1.979-5.481,4.103-6.534,5.237c-1.012,4.904-4.711,20.768-4.877,21.479l-1.511,6.475l-5.632-3.532
			c-4.164-2.611-11.406-8.177-19.792-14.622c-15.568-11.964-39.093-30.044-47.003-31.558c-3.36-0.643-11.068-1.857-19.992-3.263
			c-14.887-2.344-33.415-5.263-47.089-7.881c-5.613-1.075-9.838-1.989-12.915-2.794c-4.341-1.137-7.495-2.169-8.533-5.12
			c-0.6-1.706-0.255-3.55,0.922-4.935c3.122-3.671,16.918-22.176,18.617-26.287c0.42-1.342,0.754-6.869,1.022-11.315
			c0.33-5.464,0.703-11.656,1.441-16.98c1.031-7.435,2.545-11.538,5.063-13.718c1.447-1.252,3.252-1.858,5.085-1.705
			C1706.806,502.485,1713.103,503.638,1717.976,504.571z"/>
		<g>
			<defs>
				<path id="XMLID_89_" d="M1830.176,638.447c-12.314-7.722-55.114-44.271-68.423-46.82c-13.309-2.549-87.688-12.962-84.885-16.257
					c2.803-3.295,17.382-22.578,19.419-27.625s0.712-41.316,7.799-40.725c7.087,0.591,71.261,13.605,86.142,19.924
					s63.855,62.525,65.844,68.228c1.989,5.703-20.202,17.545-20.91,21.241C1834.454,620.109,1830.176,638.447,1830.176,638.447z"/>
			</defs>
			<use xlink:href="#XMLID_89_"  style="overflow:visible;fill:#97C7FA;"/>
			<clipPath id="XMLID_00000100344307595794407700000012177607630388057017_">
				<use xlink:href="#XMLID_89_"  style="overflow:visible;"/>
			</clipPath>
			<path style="opacity:0.24;clip-path:url(#XMLID_00000100344307595794407700000012177607630388057017_);fill:#F6F9FF;" d="
				M1807.988,624.495c0,0,54.136-30.484,53.294-31.484c-0.843-1-14.451-24.239-19.537-23.177
				c-5.086,1.062-41.797,17.505-41.797,17.505s31.888-22.887,31.706-26.077s-21.444-26.518-26.11-25.896
				c-4.666,0.622-30.695,17.613-30.695,17.613s14.174-33.669,6.931-36.188c-7.243-2.519-30.304-6.746-30.304-6.746
				s-69.6,74.574-67.765,75.873s36.156,8.061,38.158,7.497c2.002-0.564,35.368-30.358,35.368-30.358s-18.781,32.777-16.137,34.799
				s30.689,8.909,31.533,9.449c0.844,0.541,38.979-12.616,38.979-12.616s-20.654,17.831-17.089,20.976
				C1798.089,618.81,1807.988,624.495,1807.988,624.495z"/>
		</g>
		<path style="fill:#7DB9F9;" d="M1752.968,560.426c1.452-7.583,10.576-12.208,20.378-10.331
			c9.802,1.877,23.601,13.763,16.452,23.184c-4.667,6.151-14.223,0.933-24.025-0.944
			C1755.971,570.458,1751.515,568.008,1752.968,560.426z"/>
	</g>
</g>
</svg>
