<?xml version="1.0" encoding="utf-8"?>
<!-- Generator: Adobe Illustrator 27.5.0, SVG Export Plug-In . SVG Version: 6.00 Build 0)  -->
<svg version="1.1" xmlns="http://www.w3.org/2000/svg" xmlns:xlink="http://www.w3.org/1999/xlink" x="0px" y="0px"
	 viewBox="0 0 3710 3710" style="enable-background:new 0 0 3710 3710;" xml:space="preserve">
<g id="Background">
	<g>
		<g>
			<rect style="fill:#FFFFFF;" width="3710" height="3710"/>
		</g>
	</g>
</g>
<g id="Illustration">
	<g>
		<path style="fill:#F4F7FA;" d="M1623.626,3166.059c-694.61-105.193-1259.1-761.932-1156.545-1491.883
			c87.491-622.531,633.285-1106.995,1287.797-1152.744c47.393-3.321,95.333-4.349,143.717-2.945
			c365.129,10.547,689.544,156.592,929.481,377.594c238.809,219.94,393.961,514.119,422.211,822.748
			C3325.518,2539.967,2487.569,3296.9,1623.626,3166.059z"/>
		<g>
			<g>
				
					<linearGradient id="SVGID_1_" gradientUnits="userSpaceOnUse" x1="203.8116" y1="1764.8186" x2="-214.4299" y2="5002.7969" gradientTransform="matrix(-1 0 0 1 976.0522 0)">
					<stop  offset="0" style="stop-color:#FF9085"/>
					<stop  offset="1" style="stop-color:#FB6FBB"/>
				</linearGradient>
				<path style="fill:url(#SVGID_1_);" d="M971.748,3128.321c-162.436-20.869-368.388-75.705-451.104-230.327
					c-19.679-36.786-39.423-108.243,10.243-135.152c45.399-24.597,104.11,1.384,137.854,33.392
					c24.809,23.534,44.17,76.061,72.047,92.671c40.8,24.311,62.765-42.024,61.907-69.399c-1.919-61.208-77.21-86.266-127.248-99.556
					c-83.057-22.061-179.761-40.971-174.557-134.57c5.204-93.599,96.463-149.74,166.669-108.796
					c57.842,33.743,49.699,105.759,89.223,148.966c35.113,38.386,47.331-23.919,44.987-54.465
					c-5.093-66.351-63.432-114.341-106.357-158.802c-48.533-50.269-102.151-151.408-50.42-217.876
					c29.769-38.248,105.393-47.208,150.089-40.754c218.788,31.59,73.709,314.727,113.489,346.317
					c39.78,31.59,77.417-23.709,77.318-107.794c-0.099-84.084,12.771-146.094,100.52-119.184
					c87.749,26.91,104.453,246.539,4.257,330.942c-100.196,84.404,6.289,176.492,33.188,116.003
					c19.419-43.676,36.491-158.055,92.615-170.601c93.516-20.865,92.13,170.087,65.216,214.529
					c-37.728,62.299-123.035,75.833-170.676,129.582c-13.84,15.615-45.087,54.286-32.948,77.109
					c16.928,31.831,64.159-2.221,81.511-16.974c39.012-33.167,93.007-145.881,147.965-71.027
					C1375.394,2974.987,1261.905,3112.006,971.748,3128.321z"/>
				<g style="opacity:0.8;">
					<path style="fill:#FFFFFF;" d="M948.35,3114.558c3.816,0,6.945-4.365,7.015-8.196c0.064-3.317,4.584-336.943-140.826-732.956
						c-1.339-3.638-5.377-5.83-9.01-4.496c-3.64,1.336-5.507,5.205-4.17,8.846c144.514,393.569,140.033,725.133,139.971,728.424
						c-0.073,3.877,3.01,8.379,6.885,8.379C948.261,3114.558,948.307,3114.558,948.35,3114.558z"/>
				</g>
			</g>
			
				<linearGradient id="SVGID_00000161607449016416233410000008946778990426601400_" gradientUnits="userSpaceOnUse" x1="4547.0303" y1="918.9907" x2="4277.0415" y2="3009.2131" gradientTransform="matrix(-0.7599 0.65 0.65 0.7599 3327.0662 -1195.7555)">
				<stop  offset="0" style="stop-color:#AA80F9"/>
				<stop  offset="0.9964" style="stop-color:#6165D7"/>
			</linearGradient>
			<path style="fill:url(#SVGID_00000161607449016416233410000008946778990426601400_);" d="M842.502,3100.89
				c5.445-34.141,70.731-43.881,97.041-48.846c15.258-2.879,36.973-5.848,44.812-21.611c8.234-16.556-4.289-29.353-20.339-32.283
				c-28.735-5.247-59.651,13.004-86.356,21.311c-28.686,8.924-58.448,13.122-86.897,0.801
				c-22.684-9.823-45.909-33.161-50.846-57.726c-13.661-67.979,54.448-64.074,98.833-54.524
				c21.537,4.635,63.884,8.129,67.682-22.307c4.04-32.379-37.162-48.705-62.612-49.672c-33.262-1.265-65.957,6.049-98.953,8.441
				c-29.752,2.158-64.975-1.083-73.227-35.319c-6.374-26.449,8.523-56.848,30.026-72.539
				c49.716-36.278,115.22,25.585,168.289,25.457c18.762-0.045,49.73-13.811,54.923-33.958c5.267-20.523-21.393-34.347-36.009-41.832
				c-43.323-22.186-242.31-50.594-171.031-136.509c17.94-21.624,52.604-39.805,80.58-40.571
				c52.779-1.444,112.088,34.38,152.751,65.283c63.962,48.61,119.919,115.508,156.254,187.187
				c80.301,158.417,41.402,264.639,41.402,264.639c-23.282,38.389-59.308,78.315-98.987,99.942
				c-46.643,25.423-118.88,36.592-169.611,16.825C863.817,3136.684,839.128,3122.039,842.502,3100.89z"/>
		</g>
		<path style="opacity:0.7;fill:#D8DEE8;" d="M3014.485,2156.808l-67.415,4.548c-7.739-30.081-17.902-59.141-30.513-86.843
			l55.929-37.534c15.26-10.241,19.18-30.965,8.761-46.295l-65.232-95.976c-10.444-15.364-31.316-19.543-46.625-9.326l-56.678,37.827
			c-21.524-22.055-44.906-42.282-69.919-60.398l29.886-61.366c8.059-16.547,1.006-36.643-15.757-44.891l-105.026-51.68
			c-16.825-8.28-37.04-1.562-45.143,15.016l-30.096,61.563c-29.434-8.564-59.895-14.566-91.063-18.03l-5.239-69.039
			c-1.406-18.534-17.723-32.665-36.456-31.56l-117.392,6.923c-18.812,1.11-32.927,17.08-31.517,35.668l5.254,69.244
			c-30.57,7.226-60.106,16.908-88.281,29.038l-39.593-57.727c-10.676-15.568-32.04-19.844-47.723-9.546l-98.251,64.523
			c-15.741,10.337-19.812,31.365-9.083,46.956l39.727,57.739c-22.564,21.319-43.175,44.576-61.65,69.464l-63.565-30.707
			c-17.211-8.314-37.903-1.435-46.21,15.372l-52.008,105.225c-8.328,16.844-1.081,37.222,16.177,45.505l63.1,30.285
			c-8.611,29.573-14.509,60.198-17.772,91.533l-69.866,4.713c-19.125,1.29-33.487,17.536-32.064,36.287l8.898,117.254
			c1.423,18.749,18.088,32.856,37.208,31.51l69.295-4.878c7.814,30.751,18.202,60.413,31.098,88.679l-57.007,38.048
			c-15.828,10.564-19.923,31.722-9.139,47.25l67.354,96.999c10.758,15.493,32.273,19.462,48.05,8.875l56.561-37.957
			c22.197,22.477,46.364,42.958,72.169,61.254l-29.562,60.471c-8.263,16.899-1.06,37.151,16.078,45.221l106.97,50.379
			c17.075,8.042,37.571,0.877,45.786-15.99l29.174-59.905c30.183,8.359,61.393,13.997,93.267,17.004l5.025,66.218
			c1.411,18.589,17.791,32.458,36.574,30.976l117.215-9.248c18.704-1.476,32.718-17.698,31.311-36.232l-5.01-66.022
			c30.835-7.832,60.561-18.137,88.821-30.937l37.421,54.385c10.521,15.293,31.54,19.173,46.94,8.671l96.131-65.545
			c15.344-10.462,19.289-31.316,8.816-46.585l-37.527-54.714c22.223-21.683,42.511-45.228,60.575-70.402l59.982,28.79
			c16.692,8.011,36.716,1.014,44.731-15.623l50.063-103.923c7.997-16.6,0.988-36.57-15.659-44.612l-60.101-29.035
			c8.185-29.306,13.759-59.607,16.708-90.601l66.864-4.707c18.398-1.296,32.177-17.243,30.782-35.62l-8.721-114.93
			C3048.93,2169.459,3032.887,2155.567,3014.485,2156.808z M2406.811,1950.294c188.933-12,352.729,129.456,366.876,315.887
			c14.147,186.429-126.588,348.882-315.366,362.924c-189.92,14.127-356.321-127.149-370.624-315.626
			C2073.395,2125,2216.734,1962.367,2406.811,1950.294z"/>
		<path style="opacity:0.7;fill:#D8DEE8;" d="M2801.438,1137.166l-37.063,2.5c-4.254-16.538-9.842-32.514-16.775-47.744
			l30.748-20.635c8.389-5.63,10.545-17.023,4.816-25.451l-35.862-52.765c-5.742-8.447-17.217-10.745-25.633-5.127l-31.16,20.796
			c-11.833-12.125-24.688-23.246-38.439-33.205l16.431-33.737c4.43-9.097,0.553-20.146-8.663-24.68l-57.74-28.412
			c-9.25-4.552-20.364-0.859-24.818,8.256l-16.546,33.846c-16.182-4.708-32.928-8.008-50.064-9.912l-2.88-37.956
			c-0.773-10.19-9.744-17.958-20.042-17.351l-64.539,3.806c-10.342,0.61-18.103,9.39-17.327,19.609l2.888,38.068
			c-16.807,3.973-33.045,9.296-48.534,15.964l-21.767-31.737c-5.869-8.559-17.615-10.909-26.237-5.248l-54.015,35.473
			c-8.654,5.683-10.892,17.244-4.994,25.815l21.841,31.743c-12.405,11.721-23.736,24.507-33.893,38.189l-34.947-16.882
			c-9.462-4.571-20.838-0.789-25.405,8.451l-28.593,57.85c-4.579,9.261-0.594,20.464,8.894,25.017l34.69,16.65
			c-4.734,16.258-7.977,33.095-9.771,50.322l-38.41,2.591c-10.514,0.709-18.41,9.641-17.628,19.95l4.892,64.463
			c0.782,10.308,9.944,18.063,20.456,17.324l38.096-2.682c4.296,16.906,10.007,33.214,17.097,48.753l-31.341,20.918
			c-8.702,5.808-10.953,17.44-5.024,25.976l37.03,53.327c5.914,8.518,17.743,10.7,26.416,4.879l31.096-20.868
			c12.203,12.357,25.49,23.617,39.676,33.676l-16.252,33.245c-4.543,9.291-0.583,20.425,8.839,24.861l58.809,27.697
			c9.387,4.421,20.656,0.482,25.172-8.791l16.039-32.934c16.594,4.595,33.752,7.695,51.276,9.348l2.762,36.405
			c0.776,10.22,9.781,17.844,20.107,17.03l64.442-5.084c10.283-0.811,17.987-9.73,17.214-19.919l-2.754-36.297
			c16.952-4.306,33.295-9.971,48.831-17.008l20.573,29.9c5.784,8.408,17.34,10.541,25.806,4.767l52.85-36.035
			c8.435-5.752,10.604-17.216,4.846-25.611l-20.631-30.08c12.218-11.921,23.371-24.865,33.303-38.705l32.977,15.828
			c9.177,4.404,20.186,0.557,24.592-8.589l27.523-57.134c4.396-9.126,0.543-20.105-8.609-24.526l-33.042-15.962
			c4.5-16.112,7.564-32.771,9.186-49.81l36.76-2.587c10.115-0.712,17.69-9.48,16.923-19.583l-4.795-63.185
			C2820.375,1144.121,2811.555,1136.484,2801.438,1137.166z M2467.356,1023.631c103.87-6.597,193.92,71.171,201.698,173.665
			c7.778,102.493-69.594,191.805-173.379,199.525c-104.413,7.767-195.895-69.903-203.758-173.522
			C2284.054,1119.679,2362.858,1030.268,2467.356,1023.631z"/>
		<g>
			
				<linearGradient id="SVGID_00000136408788878416917830000017218689875436586638_" gradientUnits="userSpaceOnUse" x1="1582.4163" y1="3093.3374" x2="1696.2988" y2="3093.3374" gradientTransform="matrix(0.9989 0.0464 -0.0464 0.9989 1331.4767 -58.4637)">
				<stop  offset="0" style="stop-color:#444B8C"/>
				<stop  offset="0.9964" style="stop-color:#26264F"/>
			</linearGradient>
			<path style="fill:url(#SVGID_00000136408788878416917830000017218689875436586638_);" d="M2862.79,3050.45
				c20.262,16.376,21.408,28.014,20.753,33.684c-1.056,9.141-7.947,12.688-24.437,29.943c-22.303,23.34-18.892,26.465-30.254,34.906
				c-25.073,18.629-60.528,17.396-62.666,11.06c-1.501-4.449,14.533-8.074,32.782-29.208c16.839-19.501,22.539-38.829,24.063-44.499
				c2.771-10.31,3.489-19.222,3.625-25.39L2862.79,3050.45z"/>
			
				<linearGradient id="SVGID_00000155141401709386484040000014632833682525746340_" gradientUnits="userSpaceOnUse" x1="1670.9293" y1="2957.136" x2="1613.7238" y2="3061.7803" gradientTransform="matrix(0.9989 0.0464 -0.0464 0.9989 1331.4767 -58.4637)">
				<stop  offset="0" style="stop-color:#FFC444"/>
				<stop  offset="0.9964" style="stop-color:#F36F56"/>
			</linearGradient>
			<path style="fill:url(#SVGID_00000155141401709386484040000014632833682525746340_);" d="M2794.929,3000.545l39.9,69.529
				c9.608,4.252,18.797,2.104,27.318-10.291l-15.568-84.524L2794.929,3000.545z"/>
			
				<linearGradient id="SVGID_00000051385245590999864990000010789486382790693019_" gradientUnits="userSpaceOnUse" x1="1457.511" y1="3078.9724" x2="1658.9058" y2="2200.5449" gradientTransform="matrix(0.9989 0.0464 -0.0464 0.9989 1331.4767 -58.4637)">
				<stop  offset="0" style="stop-color:#AA80F9"/>
				<stop  offset="0.9964" style="stop-color:#6165D7"/>
			</linearGradient>
			<path style="fill:url(#SVGID_00000051385245590999864990000010789486382790693019_);" d="M2746.565,2108.802
				c-38.872,65.617-101.923,192.26-114.68,363.509c-12.591,169.026,30.046,297.844,47.907,345.886
				c33.464,90.014,91.662,184.531,125.469,229.582c22.801-9.536,36.223-24.491,59.024-34.027
				c-3.425-12.406-13.997-53.377-20.651-77.78c-5.157-18.907-14.664-53.888-16.618-61.365
				c-16.371-62.602-3.447-109.578-7.952-187.002c-5.255-90.296-25.942-79.802-22.831-134.011
				c4.646-80.945,50.513-99.843,103.17-217.012c36.043-80.198,73.898-164.432,39.105-210.486
				C2894.714,2068.129,2761.441,2104.574,2746.565,2108.802z"/>
			
				<linearGradient id="SVGID_00000083804435612596855740000009460866340460506017_" gradientUnits="userSpaceOnUse" x1="1712.3245" y1="3150.9487" x2="1869.037" y2="3150.9487" gradientTransform="matrix(1 0 0 1 1174.6333 0)">
				<stop  offset="0" style="stop-color:#444B8C"/>
				<stop  offset="0.9964" style="stop-color:#26264F"/>
			</linearGradient>
			<path style="fill:url(#SVGID_00000083804435612596855740000009460866340460506017_);" d="M3027.842,3114.039
				c12.154,7.73,19.489,26.103,13.952,37.67c-5.444,11.372-19.318,7.779-53.018,18.136c-36.097,11.094-43.238,22.302-69.847,22.278
				c-10.751-0.013-30.241-1.86-31.869-9.092c-1.144-5.08,7.13-10.14,34.373-28.444c38.673-25.98,38.272-26.708,46.904-30.693
				C2990.02,3113.884,3011.795,3103.833,3027.842,3114.039z"/>
			
				<linearGradient id="SVGID_00000001653925092518994610000000118638072860304005_" gradientUnits="userSpaceOnUse" x1="1797.609" y1="3142.9907" x2="1858.0024" y2="3017.9902" gradientTransform="matrix(1 0 0 1 1174.6333 0)">
				<stop  offset="0" style="stop-color:#FFC444"/>
				<stop  offset="0.9964" style="stop-color:#F36F56"/>
			</linearGradient>
			<path style="fill:url(#SVGID_00000001653925092518994610000000118638072860304005_);" d="M2970.105,3058.974l14.816,67.676
				c2.07,3.029,23.167,10.267,37.945,0l-5.447-67.676H2970.105z"/>
			
				<linearGradient id="SVGID_00000160872248940936710610000013152747129207120063_" gradientUnits="userSpaceOnUse" x1="1460.3002" y1="3079.6118" x2="1661.6951" y2="2201.1843" gradientTransform="matrix(0.9989 0.0464 -0.0464 0.9989 1331.4767 -58.4637)">
				<stop  offset="0" style="stop-color:#AA80F9"/>
				<stop  offset="0.9964" style="stop-color:#6165D7"/>
			</linearGradient>
			<path style="opacity:0.3;fill:url(#SVGID_00000160872248940936710610000013152747129207120063_);" d="M2938.507,2126.095
				c-43.793-57.966-177.066-21.521-191.943-17.293c-15.973,26.96-36.009,64.383-54.979,110.81
				c47.233-9.289,67.734-0.856,77.287,10.345c37.081,43.479-79.017,139.483-55.144,285.159
				c9.337,56.976,33.706,82.619,29.247,152.203c-3.317,51.785-19.403,77.996-30.523,115.906
				c-6.673,22.748-11.84,50.718-12.085,84.522c33.391,73.405,77.277,143.225,104.894,180.031
				c22.801-9.536,36.223-24.49,59.024-34.025c-3.425-12.406-13.997-53.378-20.651-77.781c-5.157-18.907-14.664-53.888-16.618-61.365
				c-16.371-62.602-3.447-109.578-7.952-187.002c-5.255-90.296-25.942-79.802-22.831-134.011
				c4.646-80.945,50.513-99.843,103.17-217.012C2935.445,2256.384,2973.3,2172.149,2938.507,2126.095z"/>
			
				<linearGradient id="SVGID_00000049908770523605939370000008052309601374024090_" gradientUnits="userSpaceOnUse" x1="1705.1895" y1="2705.4426" x2="2060.9678" y2="2144.5684" gradientTransform="matrix(1 0 0 1 1174.6333 0)">
				<stop  offset="0" style="stop-color:#AA80F9"/>
				<stop  offset="0.9964" style="stop-color:#6165D7"/>
			</linearGradient>
			<path style="fill:url(#SVGID_00000049908770523605939370000008052309601374024090_);" d="M2850.65,2144.366
				c-3.76,150.998,1.935,325.965,26.781,518.823c20.227,157.006,49.643,298.663,82.045,422.945
				c4.481,2.531,20.199,10.672,40.33,6.86c14.254-2.698,23.792-10.08,28.035-13.833c-3.536-25.387-7.12-63.802-4.186-110.225
				c5.043-79.797,23.831-96.053,31.895-178.633c7.071-72.415-0.379-131.574-3.991-159.005
				c-11.117-84.432-26.208-86.169-26.508-136.732c-0.462-77.863,35.138-105.744,54.709-179.928
				c13.056-49.488,19.978-123.37-12.853-224.684C2994.823,2108.09,2922.737,2126.23,2850.65,2144.366z"/>
			
				<linearGradient id="SVGID_00000062174833302139709100000014578289421671707798_" gradientUnits="userSpaceOnUse" x1="1437.9287" y1="1478.8383" x2="1553.5222" y2="1888.8331" gradientTransform="matrix(1 0 0 1 1174.6333 0)">
				<stop  offset="0" style="stop-color:#311944"/>
				<stop  offset="1" style="stop-color:#893976"/>
			</linearGradient>
			<path style="fill:url(#SVGID_00000062174833302139709100000014578289421671707798_);" d="M2773.609,1541.887
				c-26.472,14.866-63.244,39.495-97.517,78.744c-79.047,90.521-127.932,239.476-77.127,288.212
				c34.565,33.156,116.545,23.112,144.783-16.237c20.769-28.942,5.819-64.49-1.354-115.014
				C2734.677,1723.226,2734.955,1644.383,2773.609,1541.887z"/>
			
				<linearGradient id="SVGID_00000163049957926894170430000009718406821504989095_" gradientUnits="userSpaceOnUse" x1="1637.5684" y1="1423.4045" x2="1864.6121" y2="2228.699" gradientTransform="matrix(1 0 0 1 1174.6333 0)">
				<stop  offset="0" style="stop-color:#311944"/>
				<stop  offset="1" style="stop-color:#893976"/>
			</linearGradient>
			<path style="fill:url(#SVGID_00000163049957926894170430000009718406821504989095_);" d="M3080.566,2126.371
				c-29.268-385.807-122.589-543.742-114.432-590.624c-11.744-8.444-58.147-21.866-163.27-8.029
				c-8.983,3.3-32.963,12.977-56.729,34.703c0,0-5.524,5.038-13.081,13.888c73.85,13.946,149.076,55.997,176.156,115.572
				c46.908,113.92-40.207,241.243,0,341.762c21.13,52.823,54.932,99.643,95.286,143.416
				C3050.633,2165.552,3082.253,2148.609,3080.566,2126.371z"/>
			
				<linearGradient id="SVGID_00000103982063268290915830000003855245939040609684_" gradientUnits="userSpaceOnUse" x1="1751.019" y1="2734.5142" x2="2106.7976" y2="2173.6394" gradientTransform="matrix(1 0 0 1 1174.6333 0)">
				<stop  offset="0" style="stop-color:#AA80F9"/>
				<stop  offset="0.9964" style="stop-color:#6165D7"/>
			</linearGradient>
			<path style="opacity:0.3;fill:url(#SVGID_00000103982063268290915830000003855245939040609684_);" d="M3066.908,2089.953
				c-21.102,5.31-42.204,10.62-63.306,15.929c11.035,38.022,21.636,95.084,8.893,159.867
				c-17.596,89.456-63.073,109.084-69.761,189.751c-6.017,72.57,28.244,87.371,44.647,184.168
				c16.809,99.196-8.632,145.847-13.953,228.812c-3.641,56.78,2.269,131.063,36.816,221.467c8.534-3.376,14.495-8.044,17.597-10.787
				c-3.536-25.387-7.12-63.802-4.186-110.225c5.043-79.797,23.831-96.053,31.895-178.633c7.071-72.415-0.379-131.574-3.991-159.005
				c-11.117-84.432-26.208-86.169-26.508-136.732c-0.462-77.863,35.138-105.744,54.709-179.928
				C3092.817,2265.149,3099.74,2191.267,3066.908,2089.953z"/>
			
				<linearGradient id="SVGID_00000034796957809599789230000009096635443017419649_" gradientUnits="userSpaceOnUse" x1="1507.036" y1="1348.8601" x2="1734.0854" y2="2154.1748" gradientTransform="matrix(1 0 0 1 1174.6333 0)">
				<stop  offset="0" style="stop-color:#311944"/>
				<stop  offset="1" style="stop-color:#893976"/>
			</linearGradient>
			<path style="fill:url(#SVGID_00000034796957809599789230000009096635443017419649_);" d="M2746.134,1562.422
				c0,0-27.97,25.452-44.279,62.844c-24.57,56.333,1.891,104.693,9.828,196.687c8.706,100.915-3.61,269.026-32.001,329.253
				c-0.494,1.049-1.725,4.043-1.223,7.84c7.675,58.208,408.002,45.017,402.107-32.675
				c-29.268-385.807-122.589-543.742-114.432-590.623c-11.744-8.445-58.147-21.867-163.27-8.03
				C2793.88,1531.018,2769.9,1540.696,2746.134,1562.422z"/>
			<g>
				
					<linearGradient id="SVGID_00000041283319774287737290000015423322431084083129_" gradientUnits="userSpaceOnUse" x1="788.0228" y1="1585.7703" x2="795.2729" y2="1392.6499" gradientTransform="matrix(-0.917 0.3988 0.3988 0.917 2982.0386 -184.8945)">
					<stop  offset="0" style="stop-color:#FFC444"/>
					<stop  offset="0.9964" style="stop-color:#F36F56"/>
				</linearGradient>
				<path style="fill:url(#SVGID_00000041283319774287737290000015423322431084083129_);" d="M2865.129,1430.837
					c0,0,25.853,81.146,34.224,90.91c8.372,9.765-33.604,35.288-65.781,23.78c-29.549-10.567,0.024-55.604,0.024-55.604
					L2865.129,1430.837z"/>
				<g>
					
						<linearGradient id="SVGID_00000019658342788934111770000013446711128088420228_" gradientUnits="userSpaceOnUse" x1="2168.4031" y1="1408.8275" x2="2261.7437" y2="1527.3953" gradientTransform="matrix(0.8225 0.5688 -0.5688 0.8225 1858.2712 -1085.3732)">
						<stop  offset="0" style="stop-color:#444B8C"/>
						<stop  offset="0.9964" style="stop-color:#26264F"/>
					</linearGradient>
					<path style="fill:url(#SVGID_00000019658342788934111770000013446711128088420228_);" d="M2784.899,1411.886
						c-10.133-15.987-8.712-42.36,5.704-57.941c12.405-13.406,30.276-14.02,40.975-14.39c31.004-1.073,68.73,14.876,79.932,44.235
						c6.636,17.398-13.449,50.818-16.66,56.856c-3.634,6.831-9.385,8.81-14.955,13.747c-7.722,6.846-19.824,17.746-39.613,36.012
						c-0.947-5.937-2.515-13.317-5.302-21.407c-1.072-3.112-5.407-15.285-12.611-25.669
						C2807.933,1422.517,2794.503,1427.041,2784.899,1411.886z"/>
					
						<linearGradient id="SVGID_00000000188602096293507990000008551904642076409986_" gradientUnits="userSpaceOnUse" x1="403.165" y1="1708.8701" x2="398.9681" y2="2047.0103" gradientTransform="matrix(-0.9894 -0.1449 -0.1449 0.9894 3485.9355 -215.3695)">
						<stop  offset="0" style="stop-color:#FFC444"/>
						<stop  offset="0.9964" style="stop-color:#F36F56"/>
					</linearGradient>
					<path style="fill:url(#SVGID_00000000188602096293507990000008551904642076409986_);" d="M2867.581,1475.905
						c0,0-22.865,31.501-62.86,25.643c-35.809-5.245-34.574-86.397-10.2-101.675c8.132-5.096,23.685-6.23,35.896-1.723
						c7.212,2.661,9.463,5.929,21.33,10.051c10.947,3.801,14.205,2.817,17.35,5.928c3.936,3.895,6.325,12.853-2.626,35.885
						c7.428-6.4,15.887-8.406,21.506-5.177c0.896,0.516,3.233,2.398,4.418,5.057
						C2896.683,1459.521,2887.314,1470.618,2867.581,1475.905z"/>
					
						<linearGradient id="SVGID_00000128445178181069974360000013162137984504102065_" gradientUnits="userSpaceOnUse" x1="963.3474" y1="1769.3481" x2="968.0975" y2="1811.6946" gradientTransform="matrix(0.9965 0.0841 -0.0841 0.9965 1987.8906 -391.9519)">
						<stop  offset="0" style="stop-color:#FFC444"/>
						<stop  offset="1" style="stop-color:#F36F56"/>
					</linearGradient>
					<path style="fill:url(#SVGID_00000128445178181069974360000013162137984504102065_);" d="M2789.749,1462.534
						c0,0,7.448,4.687,20.944,5.016c0.657,0.016,1.361,0.266,1.417,0.61c0.208,1.298-8.873,6.318-16.634,3.446
						c-5.511-2.04-9.469-7.732-8.601-9.028C2787.242,1462.031,2788.513,1462.209,2789.749,1462.534z"/>
				</g>
			</g>
			
				<linearGradient id="SVGID_00000029768512118130901070000000805661287737607563_" gradientUnits="userSpaceOnUse" x1="1531.5513" y1="1341.9495" x2="1758.6008" y2="2147.2646" gradientTransform="matrix(1 0 0 1 1174.6333 0)">
				<stop  offset="0" style="stop-color:#311944"/>
				<stop  offset="1" style="stop-color:#893976"/>
			</linearGradient>
			<path style="opacity:0.3;fill:url(#SVGID_00000029768512118130901070000000805661287737607563_);" d="M2967.686,1785.71
				c-43.686,15.338-101.655,58.436-105.542,113.661c-5.972,84.818,120.341,131.357,103.512,190.787
				c-4.589,16.204-19.097,30.82-113.661,64.949c-38.264,13.811-73.812,25.073-106.085,34.392
				c115.712,17.055,339.069-4.951,334.655-63.129c-11.204-147.692-31.795-261.891-52.487-349.349
				C3007.114,1776.197,2986.733,1779.022,2967.686,1785.71z"/>
			
				<linearGradient id="SVGID_00000152949746226776340530000010696340378502401688_" gradientUnits="userSpaceOnUse" x1="2511.7209" y1="1096.0887" x2="2678.1182" y2="1686.2781" gradientTransform="matrix(0.9424 0.3345 -0.3345 0.9424 1043.4957 -484.9011)">
				<stop  offset="0" style="stop-color:#311944"/>
				<stop  offset="1" style="stop-color:#893976"/>
			</linearGradient>
			<path style="fill:url(#SVGID_00000152949746226776340530000010696340378502401688_);" d="M2830.146,1959.253
				c71.061,72.141,172.51,94.866,250.507,58.775c108.318-50.12,125.068-192.23,99.813-281.169
				c-42.165-148.481-225.92-235.069-283.809-195.514c-41.865,28.604-41.466,139.278,8.427,194.676
				c44.847,49.795,113.731,37.216,132.465,87.945c14.033,37.997-13.082,76.283-15.411,79.471
				c-30.16,41.288-95.889,55.297-158.051,26.944C2852.772,1940.004,2841.459,1949.628,2830.146,1959.253z"/>
			
				<linearGradient id="SVGID_00000049200315124209462890000007799369919659335298_" gradientUnits="userSpaceOnUse" x1="1556.892" y1="1909.7168" x2="1562.0258" y2="1772.9707" gradientTransform="matrix(1 0 0 1 1174.6333 0)">
				<stop  offset="0" style="stop-color:#FFC444"/>
				<stop  offset="0.9964" style="stop-color:#F36F56"/>
			</linearGradient>
			<path style="fill:url(#SVGID_00000049200315124209462890000007799369919659335298_);" d="M2689.451,1834.923
				c5.786-18.588,24.585-28.112,39.375-30.172c14.477-2.017,38.332,1.273,47.83,20.199c8.883,17.699,1.898,42.464-18.523,55.891
				c-2.874-7.131-8.024-16.512-17.093-19.357c-16.682-5.233-31.14,16.504-43.466,10.826
				C2687.75,1867.782,2685.204,1848.565,2689.451,1834.923z"/>
			<path style="fill:#FFFFFF;" d="M2757.686,1947.597l54.685,9.507c10.594,1.842,19.688-7.621,17.427-18.133l-19.894-92.508
				c-1.44-6.693-7.184-11.592-14.018-11.957l-65.472-3.503c-10.805-0.578-18.723,10.019-15.106,20.216l30.682,86.505
				C2747.819,1942.886,2752.291,1946.66,2757.686,1947.597z"/>
			
				<linearGradient id="SVGID_00000181788990602090756600000008234123446914467731_" gradientUnits="userSpaceOnUse" x1="1625.7961" y1="1983.5652" x2="1630.1548" y2="1867.4663" gradientTransform="matrix(1 0 0 1 1174.6333 0)">
				<stop  offset="0" style="stop-color:#FFC444"/>
				<stop  offset="0.9964" style="stop-color:#F36F56"/>
			</linearGradient>
			<path style="fill:url(#SVGID_00000181788990602090756600000008234123446914467731_);" d="M2853.126,1939.702
				c-4.488-32.211-18.066-40.642-22.981-43.037c-8.24-4.016-12.302-0.897-41.069-1.353c-25.699-0.408-31.789-3.044-35.04,1.353
				c-6.155,8.327,6.496,30.209,20.832,43.037c20.098,17.985,45.02,19.527,55.277,19.551L2853.126,1939.702z"/>
		</g>
		<g>
			<g>
				<g>
					<g>
						<g>
							
								<linearGradient id="SVGID_00000057128791760445789570000006310308598125000349_" gradientUnits="userSpaceOnUse" x1="2851.498" y1="1840.5116" x2="4476.0581" y2="1840.5116" gradientTransform="matrix(0.9998 0.0199 -0.0199 0.9998 -2122.78 -41.8984)">
								<stop  offset="0" style="stop-color:#444B8C"/>
								<stop  offset="0.9964" style="stop-color:#26264F"/>
							</linearGradient>
							<path style="fill:url(#SVGID_00000057128791760445789570000006310308598125000349_);" d="M2055.983,645.669l236.632,2379.894
								c3.522,35.438-20.879,66.423-54.316,68.864l-1152.956,96.57c-70.284,2.467-108.211-35.394-112.028-72.896L716.929,598.974
								c-3.851-37.842,31.262-71.335,102.262-69.889l1168.665,49.271C2021.812,579.636,2052.429,609.928,2055.983,645.669z"/>
							<path style="fill:#26264F;" d="M2108.402,642.635l237.628,2392.159c3.538,35.621-20.961,66.769-54.531,69.23
								l-1195.326,87.622c-37.319,2.736-71.075-25.863-74.909-63.562L763.729,595.604c-3.867-38.044,24.079-67.997,61.998-66.564
								l1214.268,45.927C2074.091,576.258,2104.833,606.708,2108.402,642.635z"/>
							<path style="fill:#D8DEE8;" d="M2083.237,774.63l220.396,2217.175c3.309,33.283-19.626,62.336-51.045,64.569
								l-1124.279,79.914c-34.704,2.467-66.091-24.231-69.66-59.338L820.951,737.811c-3.598-35.401,22.353-63.451,57.573-62.33
								l1140.764,36.306C2051.161,712.802,2079.901,741.081,2083.237,774.63z"/>
						</g>
						<path style="fill:#FFFFFF;" d="M1478.543,627.991c1.285,12.797-7.748,22.831-20.19,22.412
							c-12.455-0.42-23.605-11.154-24.894-23.974c-1.29-12.822,7.775-22.857,20.233-22.412
							C1466.138,604.461,1477.259,615.194,1478.543,627.991z"/>
					</g>
				</g>
				<g style="opacity:0.3;">
					<path style="fill:#F4F7FA;" d="M1367.875,1795.66c-118.797-351.01,87.976-527.843-29.122-852.957
						c-63.709-176.891-191.244-308.664-331.545-406.798l-181.48-6.864c-37.92-1.434-65.865,28.519-62,66.563l257.536,2532.479
						c3.831,37.699,37.59,66.297,74.906,63.562l1031.993-75.649c-3.241-264.427-70.42-452.622-145.132-586.405
						C1777.725,2161.968,1490.886,2159.123,1367.875,1795.66z"/>
				</g>
			</g>
			<g>
				<g>
					
						<linearGradient id="SVGID_00000075860789141611658420000004675210699751793597_" gradientUnits="userSpaceOnUse" x1="-1707.6119" y1="-1264.0243" x2="-1144.9486" y2="604.6385" gradientTransform="matrix(0.6379 -0.7701 0.7701 0.6379 3203.0696 875.1782)">
						<stop  offset="0" style="stop-color:#AA80F9"/>
						<stop  offset="0.9964" style="stop-color:#6165D7"/>
					</linearGradient>
					<path style="fill:url(#SVGID_00000075860789141611658420000004675210699751793597_);" d="M2047.854,953.859
						c177.976,147.434,355.951,294.868,533.927,442.302c-459.14,206.466-405.709,837.541-864.848,1044.007
						c-177.976-147.434-355.952-294.868-533.927-442.302C1642.145,1791.4,1588.714,1160.325,2047.854,953.859z"/>
					<path style="fill:#FFFFFF;" d="M2491.767,1388.616c-389.496,219.477-374.817,773.769-764.313,993.245
						c-151.478-125.483-302.956-250.967-454.434-376.45c389.496-219.477,374.817-773.769,764.313-993.246
						C2188.811,1137.649,2340.289,1263.132,2491.767,1388.616z"/>
					<g>
						<g>
							
								<linearGradient id="SVGID_00000008867557269643975980000012920098283810116031_" gradientUnits="userSpaceOnUse" x1="-2210.0227" y1="-1169.4996" x2="-1537.3674" y2="1064.458" gradientTransform="matrix(0.6379 -0.7701 0.7701 0.6379 3203.0696 875.1782)">
								<stop  offset="0" style="stop-color:#AA80F9"/>
								<stop  offset="0.9964" style="stop-color:#6165D7"/>
							</linearGradient>
							<path style="fill:url(#SVGID_00000008867557269643975980000012920098283810116031_);" d="M1353.783,1940.684
								c2.001,1.657,3.759,3.229,5.573,4.973c0.157,0.156,0.306,0.294,0.463,0.45c20.72,19.933,30.439,45.139,28.043,69.252
								c-2.064,21.075-13.487,41.221-35.136,56.078c-3.157,2.166-6.566,4.191-10.146,6.117
								c-13.538,7.287-29.073,12.134-45.54,14.775c-38.011-31.488-76.022-62.976-114.033-94.464
								c48.804-21.946,91.817-48.69,130.269-79.211C1327.121,1922.704,1341.79,1930.748,1353.783,1940.684z"/>
							
								<linearGradient id="SVGID_00000128479197177916783580000005132473808801060006_" gradientUnits="userSpaceOnUse" x1="-2412.5298" y1="-1267.4164" x2="-1704.5256" y2="1083.9381" gradientTransform="matrix(0.6379 -0.7701 0.7701 0.6379 3203.0696 875.1782)">
								<stop  offset="0" style="stop-color:#AA80F9"/>
								<stop  offset="0.9964" style="stop-color:#6165D7"/>
							</linearGradient>
							<path style="fill:url(#SVGID_00000128479197177916783580000005132473808801060006_);" d="M1818.816,2325.915
								c12.491,10.345,20.815,21.713,27.78,35.522c-38.298,30.322-81.115,56.9-129.663,78.73
								c-38.894-32.219-77.788-64.439-116.682-96.659c9.02-8.811,20.439-17.072,33.974-24.356c3.58-1.926,7.242-3.742,10.954-5.448
								c55.421-25.422,123.371-25.412,168.693,8.336c0.174,0.121,0.346,0.259,0.531,0.395
								C1815.889,2323.533,1817.426,2324.762,1818.816,2325.915z"/>
						</g>
						<g>
							
								<linearGradient id="SVGID_00000107558238848977244470000005988845946911025280_" gradientUnits="userSpaceOnUse" x1="-1121.1355" y1="-1655.6124" x2="-416.5633" y2="684.3443" gradientTransform="matrix(0.6379 -0.7701 0.7701 0.6379 3203.0696 875.1782)">
								<stop  offset="0" style="stop-color:#AA80F9"/>
								<stop  offset="0.9964" style="stop-color:#6165D7"/>
							</linearGradient>
							<path style="fill:url(#SVGID_00000107558238848977244470000005988845946911025280_);" d="M2047.854,953.859
								c38.011,31.488,76.022,62.976,114.032,94.464c-9.021,8.811-20.438,17.072-33.974,24.356
								c-3.581,1.927-7.242,3.744-10.954,5.448c-54.856,25.154-121.804,25.549-167.127-7.173c-2.122-1.514-3.849-2.829-5.848-4.488
								c-11.988-9.929-21.693-22.081-26.399-33.396C1956.037,1002.549,1999.05,975.805,2047.854,953.859z"/>
							
								<linearGradient id="SVGID_00000065784596190642765350000002271220046536599979_" gradientUnits="userSpaceOnUse" x1="-1297.5519" y1="-1668.5378" x2="-621.2826" y2="577.4221" gradientTransform="matrix(0.6379 -0.7701 0.7701 0.6379 3203.0696 875.1782)">
								<stop  offset="0" style="stop-color:#AA80F9"/>
								<stop  offset="0.9964" style="stop-color:#6165D7"/>
							</linearGradient>
							<path style="fill:url(#SVGID_00000065784596190642765350000002271220046536599979_);" d="M2465.099,1299.502
								c38.894,32.22,77.788,64.439,116.682,96.659c-48.548,21.831-91.365,48.409-129.663,78.731
								c-16.882-5.948-30.605-12.84-43.101-23.195c-1.39-1.153-2.873-2.428-4.198-3.656c-0.159-0.154-0.332-0.295-0.476-0.439
								c-20.19-18.627-30.567-42.167-30.176-65.21c0.408-23.143,11.802-45.671,35.405-61.866c3.156-2.166,6.485-4.255,10.067-6.183
								C2433.174,1307.058,2448.632,1302.145,2465.099,1299.502z"/>
						</g>
					</g>
					
						<linearGradient id="SVGID_00000183951921436504823070000017134824816805969026_" gradientUnits="userSpaceOnUse" x1="-1531.0342" y1="-678.4528" x2="-1419.7616" y2="-308.905" gradientTransform="matrix(0.6379 -0.7701 0.7701 0.6379 3203.0696 875.1782)">
						<stop  offset="0" style="stop-color:#AA80F9"/>
						<stop  offset="0.9964" style="stop-color:#6165D7"/>
					</linearGradient>
					<path style="fill:url(#SVGID_00000183951921436504823070000017134824816805969026_);" d="M1975.444,1512.711
						c85.229,70.602,110.41,208.49,61.298,312.164c-49.111,103.675-162.733,126.578-248.725,55.344
						c-85.227-70.605-110.41-208.49-61.298-312.164C1775.833,1464.379,1889.453,1441.474,1975.444,1512.711z"/>
					<g>
						<path style="fill:#FFFFFF;" d="M1912.993,1636.45c-15.001,3.522-30.521,13.713-48.453,34.603
							c-12.635-10.467-25.27-20.933-37.905-31.4c0.495-0.867,0.989-1.735,1.484-2.602c4.959-8.47,10.518-16.099,16.493-22.479
							c3.423-3.666,7.078-7.111,10.865-10.165c4.241-3.411,4.241-10.801,0.103-14.971c-5.209-5.243-10.419-10.484-15.628-15.727
							c-3.276-3.272-7.986-3.371-11.039-0.27c-5.126,5.158-10.172,10.949-14.799,16.63c-6.283,7.706-12.069,15.806-17.553,24.67
							c-4.416-3.658-8.833-7.317-13.249-10.975c-3.867-3.206-8.94-2.702-11.521,1.593c-2.602,4.3-1.384,10.06,2.513,13.285
							c4.509,3.735,9.018,7.471,13.527,11.206c-10.81,22.321-15.341,43.209-13.272,62.104c2.1,19.03,10.627,34.756,25.642,47.191
							c14.517,12.03,29.272,16.247,44.176,12.663c14.84-3.567,30.251-14.957,46.123-34.045
							c14.034,11.693,28.068,23.385,42.102,35.077c-5.499,9.584-11.724,18.392-18.651,26.414
							c-4.443,5.142-9.195,9.941-14.224,14.401c-4.307,3.828-4.374,11.589-0.007,15.9c6.738,6.655,13.476,13.308,20.214,19.962
							c3.364,3.32,8.09,3.215,11.147-0.104c5.046-5.493,9.865-11.439,14.45-17.81c6.19-8.591,12.178-18.31,17.771-28.663
							c0.678-1.271,1.355-2.541,2.033-3.812c4.805,3.98,9.61,7.961,14.415,11.941c3.898,3.225,8.911,2.76,11.144-1.849
							c0.023-0.048,0.046-0.096,0.07-0.144c2.231-4.606,0.975-10.252-2.907-13.467c-4.871-4.035-9.742-8.07-14.613-12.106
							c6.94-16.589,10.784-32.454,11.369-47.271c0.29-6.416,0.008-12.79-0.921-18.898c-3.028-20.066-12.165-36.183-27.35-48.764
							C1942.499,1636.935,1927.938,1632.966,1912.993,1636.45z M1901.819,1704.169c6.034-6.171,12.036-10.504,17.281-11.544
							c5.229-1.051,10.465,0.455,15.566,4.679c5.619,4.652,8.873,10.456,9.941,17.13c1.062,6.688-0.239,13.811-4.115,21.772
							C1927.601,1725.526,1914.71,1714.848,1901.819,1704.169z M1837.801,1695.148c-4.801,1.162-9.47-0.129-13.976-3.859
							c-4.77-3.95-7.595-9.07-8.491-15.372c-0.894-6.306,0.528-13.909,3.181-20.649c11.602,9.611,23.203,19.221,34.805,28.832
							C1847.642,1690.567,1842.609,1693.97,1837.801,1695.148z"/>
					</g>
					
						<linearGradient id="SVGID_00000155107660089806433610000018420172973273956524_" gradientUnits="userSpaceOnUse" x1="-2153.2686" y1="-453.4842" x2="-797.5522" y2="-453.4842" gradientTransform="matrix(0.6379 -0.7701 0.7701 0.6379 3203.0696 875.1782)">
						<stop  offset="0" style="stop-color:#AA80F9"/>
						<stop  offset="0.9964" style="stop-color:#6165D7"/>
					</linearGradient>
					<path style="opacity:0.2;fill:url(#SVGID_00000155107660089806433610000018420172973273956524_);" d="M2580.046,1394.723
						c0.579,0.479,1.157,0.958,1.736,1.438c-459.14,206.466-405.709,837.541-864.848,1044.007
						c-174.213-144.317-348.426-288.634-522.639-432.951c25.344-2.686,52.704-4.283,82.214-3.786
						c34.075,0.589,71.008,3.952,111.354,11.93c44.807,8.857,93.823,23.388,148.135,46.354
						c268.333,113.863,345.444,17.99,391.95-143.929c12.774-42.926,23.804-90.176,37.171-138.214
						c5.894-21.124,12.472-42.415,19.798-63.556c14.384-41.389,31.688-82.215,52.58-120.134
						c68.34-129.662,188.301-217.411,336.671-213.49c27.183,0.376,54.909,3.577,82.687,9.608c7.239,1.568,14.841,2.758,22.83,3.608
						C2508.566,1398.732,2542.144,1397.511,2580.046,1394.723z"/>
				</g>
			</g>
			<g>
				
					<linearGradient id="SVGID_00000142871522513641804580000010689280244918767005_" gradientUnits="userSpaceOnUse" x1="-4071.0583" y1="-742.5438" x2="-5317.8569" y2="-856.6719" gradientTransform="matrix(0.3746 -0.924 0.9606 0.2746 4179.5039 -2299.4614)">
					<stop  offset="0" style="stop-color:#311944"/>
					<stop  offset="1" style="stop-color:#893976"/>
				</linearGradient>
				<path style="fill:url(#SVGID_00000142871522513641804580000010689280244918767005_);" d="M2132.391,1489.098
					c15.928,6.315,24.185,23.185,18.334,37.501l-368.857,906.988c-6.307,15.423-28.417,26.518-44.854,19.683l-600.888-249.852
					c-16.089-6.69-22.757-30.003-16.135-45.091l371.949-892.728c6.121-14.019,23.876-20.422,39.469-14.24L2132.391,1489.098z"/>
				
					<linearGradient id="SVGID_00000015320180201043836630000004550581571929783231_" gradientUnits="userSpaceOnUse" x1="-5189.0991" y1="-868.914" x2="-3425.5701" y2="-803.3123" gradientTransform="matrix(0.367 -0.9283 0.9606 0.2746 4184.6396 -2295.6353)">
					<stop  offset="0.0036" style="stop-color:#E38DDD"/>
					<stop  offset="1" style="stop-color:#9571F6"/>
				</linearGradient>
				<path style="fill:url(#SVGID_00000015320180201043836630000004550581571929783231_);" d="M2142.214,1471.137
					c16.042,6.354,24.345,23.36,18.438,37.803l-375.69,918.545c-6.349,15.522-25.089,22.607-41.63,15.733l-604.647-251.283
					c-16.189-6.728-23.971-24.665-17.31-39.849l375.95-905.701c6.172-14.146,24.057-20.623,39.759-14.404L2142.214,1471.137z"/>
				<g style="opacity:0.7;">
					<path style="fill:#F4F7FA;" d="M1688.38,2099.598l-63.647,149.069c-2.841,6.653-10.767,10.22-17.613,7.922l-37.534-12.598
						c-6.85-2.3-10.114-9.625-7.252-16.274l64.107-148.991c2.82-6.554,10.683-10.04,17.475-7.75l37.213,12.543
						C1687.917,2085.806,1691.18,2093.04,1688.38,2099.598z"/>
					<path style="fill:#F4F7FA;" d="M1772.134,1903.437l-62.483,146.342c-2.789,6.531-10.617,10.007-17.396,7.721l-37.165-12.535
						c-6.783-2.288-10.034-9.504-7.226-16.031l62.934-146.264c2.769-6.435,10.536-9.832,17.262-7.554l36.85,12.481
						C1771.632,1889.872,1774.883,1896.999,1772.134,1903.437z"/>
					<path style="fill:#F4F7FA;" d="M1854.368,1710.836l-61.35,143.689c-2.738,6.412-10.471,9.8-17.184,7.525l-36.802-12.472
						c-6.717-2.277-9.956-9.386-7.198-15.794l61.792-143.611c2.719-6.318,10.392-9.63,17.052-7.364l36.494,12.418
						C1853.828,1697.492,1857.067,1704.515,1854.368,1710.836z"/>
					<path style="fill:#F4F7FA;" d="M1935.123,1521.7l-60.248,141.108c-2.688,6.297-10.328,9.6-16.976,7.336l-36.447-12.41
						c-6.652-2.265-9.879-9.27-7.171-15.563l60.682-141.031c2.67-6.205,10.251-9.434,16.848-7.179l36.145,12.356
						C1934.547,1508.57,1937.773,1515.491,1935.123,1521.7z"/>
				</g>
				<g>
					
						<linearGradient id="SVGID_00000168103366856860339190000015040909367825946775_" gradientUnits="userSpaceOnUse" x1="-5283.4307" y1="-1083.4586" x2="-4735.1323" y2="-772.632" gradientTransform="matrix(0.367 -0.9283 0.9606 0.2746 4184.6396 -2295.6353)">
						<stop  offset="0" style="stop-color:#F57E53"/>
						<stop  offset="0.0045" style="stop-color:#F58152"/>
						<stop  offset="0.042" style="stop-color:#F99A4D"/>
						<stop  offset="0.084" style="stop-color:#FCAD49"/>
						<stop  offset="0.1333" style="stop-color:#FEBA46"/>
						<stop  offset="0.1962" style="stop-color:#FFC244"/>
						<stop  offset="0.3183" style="stop-color:#FFC444"/>
						<stop  offset="0.455" style="stop-color:#FDB946"/>
						<stop  offset="0.6941" style="stop-color:#F99C4C"/>
						<stop  offset="0.9964" style="stop-color:#F36F56"/>
					</linearGradient>
					<path style="fill:url(#SVGID_00000168103366856860339190000015040909367825946775_);" d="M1508.621,2109.752l-30.017,70.696
						c-5.462,12.865-21.204,18.741-34.971,13.05l-74.977-30.997c-13.725-5.674-20.436-20.805-14.924-33.616l30.289-70.406
						c5.476-12.73,21.137-18.538,34.812-12.918l74.706,30.706C1507.256,2081.905,1514.048,2096.969,1508.621,2109.752z"/>
					
						<linearGradient id="SVGID_00000031195715907702081220000006520230265248765610_" gradientUnits="userSpaceOnUse" x1="-5108.1362" y1="-892.6919" x2="-4987.2124" y2="-892.6919" gradientTransform="matrix(0.3746 -0.924 0.9606 0.2746 4179.5039 -2299.4614)">
						<stop  offset="0" style="stop-color:#FF9085"/>
						<stop  offset="1" style="stop-color:#FB6FBB"/>
					</linearGradient>
					<path style="fill:url(#SVGID_00000031195715907702081220000006520230265248765610_);" d="M1499.304,2111.758l-25.798,60.713
						c-5.055,11.896-19.535,17.299-32.269,12.037l-64.39-26.611c-12.701-5.25-18.881-19.169-13.786-31.022l26.004-60.491
						c5.067-11.787,19.482-17.136,32.142-11.931l64.184,26.391C1498.086,2086.063,1504.331,2099.928,1499.304,2111.758z
						 M1366.256,2128.194c-4.386,10.207,0.937,22.193,11.873,26.712l64.384,26.604c10.964,4.531,23.433-0.121,27.786-10.364
						l25.804-60.707c4.33-10.187-1.047-22.128-11.978-26.623l-64.191-26.396c-10.903-4.484-23.319,0.123-27.681,10.275
						L1366.256,2128.194z"/>
					<g>
						<g>
							<path style="fill:#F4F7FA;" d="M1385.46,2159.697l43.059-100.493L1385.46,2159.697z"/>
							
								<linearGradient id="SVGID_00000077293648009818649550000015162836910798285231_" gradientUnits="userSpaceOnUse" x1="-5086.7764" y1="-969.0939" x2="-4977.2114" y2="-969.0939" gradientTransform="matrix(0.367 -0.9283 0.9606 0.2746 4184.6396 -2295.6353)">
								<stop  offset="0" style="stop-color:#FF9085"/>
								<stop  offset="1" style="stop-color:#FB6FBB"/>
							</linearGradient>
							<polygon style="fill:url(#SVGID_00000077293648009818649550000015162836910798285231_);" points="1430.115,2059.861 
								1387.061,2160.357 1383.861,2159.035 1426.925,2058.549 							"/>
						</g>
						<g>
							<path style="fill:#F4F7FA;" d="M1409.664,2169.699l42.984-100.573L1409.664,2169.699z"/>
							
								<linearGradient id="SVGID_00000097469317263497907790000016404670559774671539_" gradientUnits="userSpaceOnUse" x1="-5089.7607" y1="-942.8076" x2="-4980.1382" y2="-942.8076" gradientTransform="matrix(0.367 -0.9283 0.9606 0.2746 4184.6396 -2295.6353)">
								<stop  offset="0" style="stop-color:#FF9085"/>
								<stop  offset="1" style="stop-color:#FB6FBB"/>
							</linearGradient>
							<polygon style="fill:url(#SVGID_00000097469317263497907790000016404670559774671539_);" points="1454.244,2069.783 
								1411.266,2170.36 1408.063,2169.037 1451.052,2068.47 							"/>
						</g>
						<g>
							<path style="fill:#F4F7FA;" d="M1433.887,2179.709l42.909-100.654L1433.887,2179.709z"/>
							
								<linearGradient id="SVGID_00000181769895298429557760000017735953554597472655_" gradientUnits="userSpaceOnUse" x1="-5092.7476" y1="-916.4991" x2="-4983.0674" y2="-916.4991" gradientTransform="matrix(0.367 -0.9283 0.9606 0.2746 4184.6396 -2295.6353)">
								<stop  offset="0" style="stop-color:#FF9085"/>
								<stop  offset="1" style="stop-color:#FB6FBB"/>
							</linearGradient>
							<polygon style="fill:url(#SVGID_00000181769895298429557760000017735953554597472655_);" points="1478.395,2079.713 
								1435.49,2180.371 1432.285,2179.046 1475.199,2078.4 							"/>
						</g>
					</g>
					<g>
						<path style="fill:#FEC045;" d="M1479.193,2122.57l-11.974,28.141c-3.043,7.152-11.805,10.418-19.468,7.255l-56.199-23.197
							c-7.646-3.156-11.393-11.576-8.332-18.708l12.047-28.063c3.054-7.113,11.795-10.36,19.427-7.218l56.105,23.097
							C1478.449,2107.027,1482.228,2115.437,1479.193,2122.57z"/>
						
							<linearGradient id="SVGID_00000106130394444972153190000008127283326677517443_" gradientUnits="userSpaceOnUse" x1="-5082.1592" y1="-892.6687" x2="-5012.9878" y2="-892.6687" gradientTransform="matrix(0.3746 -0.924 0.9606 0.2746 4179.5039 -2299.4614)">
							<stop  offset="0" style="stop-color:#FF9085"/>
							<stop  offset="1" style="stop-color:#FB6FBB"/>
						</linearGradient>
						<path style="fill:url(#SVGID_00000106130394444972153190000008127283326677517443_);" d="M1480.792,2123.229l-11.973,28.144
							c-3.402,7.996-13.141,11.626-21.707,8.091l-56.201-23.2c-8.547-3.529-12.712-12.887-9.288-20.86l12.049-28.063
							c3.413-7.95,13.128-11.559,21.66-8.047l56.102,23.094C1479.984,2105.908,1484.185,2115.255,1480.792,2123.229z
							 M1384.817,2116.721c-2.716,6.329,0.591,13.757,7.374,16.557l56.196,23.194c6.798,2.806,14.529-0.075,17.229-6.421
							l11.976-28.141c2.693-6.328-0.64-13.749-7.428-16.543l-56.107-23.099c-6.773-2.789-14.485,0.076-17.194,6.388
							L1384.817,2116.721z"/>
					</g>
				</g>
				
					<linearGradient id="SVGID_00000088116608964613998270000000509492349865285042_" gradientUnits="userSpaceOnUse" x1="-5199.2363" y1="-645.9913" x2="-3489.5522" y2="-582.3926" gradientTransform="matrix(0.367 -0.9283 0.9606 0.2746 4184.6396 -2295.6353)">
					<stop  offset="0" style="stop-color:#FB6FBB"/>
					<stop  offset="1" style="stop-color:#FF9085"/>
				</linearGradient>
				<path style="opacity:0.15;fill:url(#SVGID_00000088116608964613998270000000509492349865285042_);" d="M1755.13,2060.305
					c-21.906,79.709-41.31,128.249-82.884,174.797c-57.093,63.924-128.228,93.066-172.691,106.805l243.777,101.31
					c16.541,6.874,35.281-0.211,41.63-15.733l375.69-918.545c5.908-14.443-2.396-31.45-18.438-37.803l-96.88-38.373
					c-147.738,100.687-203.492,203.395-226.719,280.39C1790.553,1806.181,1807.165,1870.971,1755.13,2060.305z"/>
				<g style="opacity:0.42;">
					
						<linearGradient id="SVGID_00000111174854757511478570000003778406373791692419_" gradientUnits="userSpaceOnUse" x1="-5151.8521" y1="-561.037" x2="-4909.4434" y2="-561.037" gradientTransform="matrix(0.3746 -0.924 0.9606 0.2746 4179.5039 -2299.4614)">
						<stop  offset="0" style="stop-color:#FB6FBB"/>
						<stop  offset="1" style="stop-color:#FF9085"/>
					</linearGradient>
					<path style="fill:url(#SVGID_00000111174854757511478570000003778406373791692419_);" d="M1823.427,2102.108l-84.842,205.61
						c-1.615,3.915-6.365,5.701-10.554,3.969l-34.493-14.26c-4.184-1.729-6.279-6.343-4.658-10.251l85.158-205.274
						c1.595-3.847,6.3-5.602,10.455-3.903l34.258,14.011C1822.912,2093.712,1825.017,2098.255,1823.427,2102.108z"/>
					
						<linearGradient id="SVGID_00000030466736946034669230000008885233289255900345_" gradientUnits="userSpaceOnUse" x1="-4797.543" y1="-557.444" x2="-4481.8975" y2="-557.444" gradientTransform="matrix(0.3746 -0.924 0.9606 0.2746 4179.5039 -2299.4614)">
						<stop  offset="0" style="stop-color:#FB6FBB"/>
						<stop  offset="1" style="stop-color:#FF9085"/>
					</linearGradient>
					<path style="fill:url(#SVGID_00000030466736946034669230000008885233289255900345_);" d="M1987.369,1707.72l-112.897,273.511
						c-1.608,3.897-6.353,5.692-10.543,3.987l-34.497-14.035c-4.184-1.702-6.285-6.279-4.671-10.17l113.303-273.076
						c1.582-3.811,6.269-5.568,10.417-3.904l34.201,13.717C1986.835,1699.417,1988.945,1703.903,1987.369,1707.72z"/>
				</g>
				
					<linearGradient id="SVGID_00000136384540722423459400000017429729025832312712_" gradientUnits="userSpaceOnUse" x1="-4084.8467" y1="-1616.1666" x2="-3916.3066" y2="-1616.1666" gradientTransform="matrix(0.2591 -0.9498 0.998 0.1641 4255.0259 -2080.0344)">
					<stop  offset="0" style="stop-color:#FF9085"/>
					<stop  offset="1" style="stop-color:#FB6FBB"/>
				</linearGradient>
				<path style="opacity:0.26;fill:url(#SVGID_00000136384540722423459400000017429729025832312712_);" d="M1636.952,1377.893
					c41.596,16.552,60.75,64.662,42.884,107.064c-17.696,41.998-65.066,62.459-105.904,46.083
					c-40.78-16.353-60.179-63.489-43.237-105.662C1547.801,1382.799,1595.416,1361.364,1636.952,1377.893z"/>
				<g style="opacity:0.53;">
					<path style="fill:#F4F7FA;" d="M1481.723,2018.584c2.721,6.615-0.461,14.285-7.146,17.116
						c-6.715,2.844-14.366-0.29-17.052-6.981c-2.673-6.66,0.606-14.287,7.284-17.054
						C1471.46,2008.911,1479.015,2012.001,1481.723,2018.584z"/>
					<g>
						<path style="fill:#F4F7FA;" d="M1544.872,2000.115c-0.45,1.149-1.342,2.12-2.568,2.637c-2.46,1.038-5.332-0.135-6.409-2.616
							c-15.895-36.658-58.402-53.996-95.958-39.188c-2.541,1.002-5.403-0.167-6.386-2.607c-0.983-2.436,0.281-5.214,2.817-6.205
							c42.409-16.58,90.359,2.968,108.421,44.263C1545.33,1997.634,1545.322,1998.964,1544.872,2000.115z"/>
						<path style="fill:#F4F7FA;" d="M1527.004,2007.647c-0.463,1.16-1.369,2.14-2.611,2.665c-2.49,1.051-5.379-0.129-6.445-2.633
							c-11.593-27.214-43.061-40.06-70.805-28.934c-2.552,1.023-5.433-0.154-6.429-2.626c-0.996-2.469,0.268-5.289,2.813-6.301
							c32.669-12.991,69.682,2.113,83.422,34.077C1527.485,2005.143,1527.467,2006.485,1527.004,2007.647z"/>
						<path style="fill:#F4F7FA;" d="M1508.917,2015.272c-0.476,1.172-1.399,2.163-2.655,2.693c-2.521,1.064-5.426-0.124-6.482-2.65
							c-7.334-17.532-27.552-25.794-45.337-18.539c-2.562,1.045-5.462-0.141-6.472-2.645c-1.009-2.501,0.253-5.365,2.809-6.399
							c11.08-4.481,23.155-4.481,34.065-0.024c10.914,4.459,19.445,12.881,24.045,23.777
							C1509.422,2012.743,1509.393,2014.099,1508.917,2015.272z"/>
					</g>
				</g>
			</g>
			<g>
				
					<linearGradient id="SVGID_00000177477553861664382160000011354340507909443456_" gradientUnits="userSpaceOnUse" x1="1258.9818" y1="1943.7689" x2="905.2802" y2="2057.2825">
					<stop  offset="0" style="stop-color:#FCB148"/>
					<stop  offset="0.0521" style="stop-color:#FDBA46"/>
					<stop  offset="0.1424" style="stop-color:#FFC244"/>
					<stop  offset="0.3183" style="stop-color:#FFC444"/>
					<stop  offset="0.4849" style="stop-color:#FDB946"/>
					<stop  offset="0.7754" style="stop-color:#F99C4D"/>
					<stop  offset="0.8658" style="stop-color:#F8924F"/>
					<stop  offset="1" style="stop-color:#F8924F"/>
				</linearGradient>
				<path style="fill:url(#SVGID_00000177477553861664382160000011354340507909443456_);" d="M1666.168,1930.935
					c0,164.087-128.306,293.165-292.295,288.13c-170.664-5.241-314.198-152.635-314.198-329.018
					c0-176.382,143.534-304.423,314.198-286.652C1537.862,1620.47,1666.168,1766.848,1666.168,1930.935z"/>
				
					<linearGradient id="SVGID_00000026848523274865051350000012118570293021569704_" gradientUnits="userSpaceOnUse" x1="1545.1058" y1="1591.6943" x2="1229.3427" y2="2288.3267">
					<stop  offset="0" style="stop-color:#FFDB44"/>
					<stop  offset="1" style="stop-color:#FEEF06"/>
				</linearGradient>
				<path style="fill:url(#SVGID_00000026848523274865051350000012118570293021569704_);" d="M1710.481,1916.786
					c0,164.087-128.306,293.165-292.295,288.129c-170.664-5.241-314.199-152.635-314.199-329.017
					c0-176.383,143.534-304.423,314.199-286.653C1582.175,1606.321,1710.481,1752.7,1710.481,1916.786z"/>
				
					<linearGradient id="SVGID_00000013180273427306103280000015708204669611564470_" gradientUnits="userSpaceOnUse" x1="1487.0211" y1="2327.262" x2="1426.0939" y2="1994.4189">
					<stop  offset="0" style="stop-color:#FCB148"/>
					<stop  offset="0.0521" style="stop-color:#FDBA46"/>
					<stop  offset="0.1424" style="stop-color:#FFC244"/>
					<stop  offset="0.3183" style="stop-color:#FFC444"/>
					<stop  offset="0.4849" style="stop-color:#FDB946"/>
					<stop  offset="0.7754" style="stop-color:#F99C4D"/>
					<stop  offset="0.8658" style="stop-color:#F8924F"/>
					<stop  offset="1" style="stop-color:#F8924F"/>
				</linearGradient>
				<path style="fill:url(#SVGID_00000013180273427306103280000015708204669611564470_);" d="M1697.609,1915.918
					c0,156.861-122.765,280.047-279.424,274.974c-162.739-5.27-299.375-145.934-299.375-313.995s136.636-290.302,299.375-273.629
					C1574.844,1619.319,1697.609,1759.058,1697.609,1915.918z"/>
				
					<linearGradient id="SVGID_00000054259327262693582520000004176283934112787880_" gradientUnits="userSpaceOnUse" x1="1357.844" y1="1788.5188" x2="1608.9329" y2="2321.5327">
					<stop  offset="0" style="stop-color:#FCB148"/>
					<stop  offset="0.0521" style="stop-color:#FDBA46"/>
					<stop  offset="0.1424" style="stop-color:#FFC244"/>
					<stop  offset="0.3183" style="stop-color:#FFC444"/>
					<stop  offset="0.4849" style="stop-color:#FDB946"/>
					<stop  offset="0.7754" style="stop-color:#F99C4D"/>
					<stop  offset="0.8658" style="stop-color:#F8924F"/>
					<stop  offset="1" style="stop-color:#F8924F"/>
				</linearGradient>
				<path style="fill:url(#SVGID_00000054259327262693582520000004176283934112787880_);" d="M1688.391,1915.297
					c0,151.686-118.79,270.663-270.205,265.579c-157.087-5.274-288.817-141.133-288.817-303.267s131.73-280.231,288.817-264.325
					C1569.6,1628.617,1688.391,1763.612,1688.391,1915.297z"/>
				<g>
					
						<linearGradient id="SVGID_00000020392059611699365090000017895893699028185785_" gradientUnits="userSpaceOnUse" x1="1347.8403" y1="1673.8212" x2="1474.0964" y2="2147.0068">
						<stop  offset="0" style="stop-color:#FFDB44"/>
						<stop  offset="1" style="stop-color:#FEEF06"/>
					</linearGradient>
					<path style="fill:url(#SVGID_00000020392059611699365090000017895893699028185785_);" d="M1416.635,1664.889L1416.635,1664.889
						c8.058,0.766,14.579,8.02,14.579,16.203v27.928c16.111,1.799,32.245,4.6,48.403,8.397c11.913,2.8,23.746,6.133,35.5,9.997
						c7.042,2.316,11.841,9.426,11.123,16.76l-3.43,35.02c-0.91,9.292-10.095,14.748-18.741,10.892
						c-7.742-3.453-15.68-6.41-23.815-8.872c-14.196-4.295-29.166-7.096-44.92-8.394l-4.119-0.339v79.982
						c42.032,11.759,72.901,27.58,92.85,47.478c19.853,19.803,29.744,44.484,29.744,74.113c0,32.041-10.936,57.698-32.894,77.048
						c-22.076,19.453-53.026,30.394-93.05,32.763v30.824c0,8.187-6.526,14.563-14.591,14.243l-0.258-0.01
						c-8.08-0.321-14.642-7.241-14.642-15.456v-30.407l-6.495-0.293c-18.763-0.846-36.735-2.761-53.906-5.747
						c-12.717-2.212-25.135-5.067-37.252-8.568c-7.328-2.117-12.359-9.097-11.686-16.597l4.036-45.018
						c0.872-9.732,10.648-15.395,19.902-11.745c10.787,4.255,21.708,7.839,32.762,10.754c17.227,4.543,34.688,7.457,52.38,8.751
						l0.26-88.969c-40.346-9.983-70.553-24.77-90.399-44.356c-19.939-19.679-29.943-44.863-29.943-75.482
						c0-31.688,10.848-56.148,32.462-73.314c21.504-17.08,52.074-25.577,91.513-25.555v-28.552
						C1402.005,1670.154,1408.561,1664.121,1416.635,1664.889z M1402.005,1771.652c-12.469,0.907-22.193,4.332-29.152,10.278
						c-6.971,5.956-10.46,13.962-10.46,24.009c0,9.518,3.228,17.474,9.677,23.86c6.439,6.376,16.426,11.468,29.936,15.272V1771.652z
						 M1427.864,1932.756v81.588c13.555,0.027,23.949-3.21,31.205-9.7c7.244-6.479,10.861-15.631,10.861-27.464
						c0-10.789-3.362-19.737-10.093-26.852C1453.095,1943.2,1442.447,1937.344,1427.864,1932.756z"/>
				</g>
				
					<linearGradient id="SVGID_00000001627045585218368730000011100498437433292928_" gradientUnits="userSpaceOnUse" x1="1283.9744" y1="1823.0128" x2="1534.5566" y2="2354.9514">
					<stop  offset="0" style="stop-color:#FCB148"/>
					<stop  offset="0.0521" style="stop-color:#FDBA46"/>
					<stop  offset="0.1424" style="stop-color:#FFC244"/>
					<stop  offset="0.3183" style="stop-color:#FFC444"/>
					<stop  offset="0.4849" style="stop-color:#FDB946"/>
					<stop  offset="0.7754" style="stop-color:#F99C4D"/>
					<stop  offset="0.8658" style="stop-color:#F8924F"/>
					<stop  offset="1" style="stop-color:#F8924F"/>
				</linearGradient>
				<path style="opacity:0.3;fill:url(#SVGID_00000001627045585218368730000011100498437433292928_);" d="M1369.289,1952.443
					c9.129-90.167,91.996-128.337,81.182-211.276c-6.666-51.119-45.41-94.199-88.632-127.836
					c-131.097,13.749-232.471,122.301-232.471,264.279c0,162.135,131.73,297.993,288.817,303.267
					c15.252,0.512,30.148-0.281,44.632-2.179C1400.432,2116.618,1361.446,2029.907,1369.289,1952.443z"/>
			</g>
			<g>
				
					<linearGradient id="SVGID_00000150796533226702519440000007249731086645489584_" gradientUnits="userSpaceOnUse" x1="1235.5634" y1="1285.5043" x2="997.3403" y2="1361.9572">
					<stop  offset="0" style="stop-color:#FCB148"/>
					<stop  offset="0.0521" style="stop-color:#FDBA46"/>
					<stop  offset="0.1424" style="stop-color:#FFC244"/>
					<stop  offset="0.3183" style="stop-color:#FFC444"/>
					<stop  offset="0.4849" style="stop-color:#FDB946"/>
					<stop  offset="0.7754" style="stop-color:#F99C4D"/>
					<stop  offset="0.8658" style="stop-color:#F8924F"/>
					<stop  offset="1" style="stop-color:#F8924F"/>
				</linearGradient>
				<path style="fill:url(#SVGID_00000150796533226702519440000007249731086645489584_);" d="M1509.809,1276.86
					c0,110.515-86.416,197.451-196.865,194.059c-114.945-3.53-211.617-102.802-211.617-221.598
					c0-118.796,96.672-205.033,211.617-193.064C1423.393,1067.758,1509.809,1166.346,1509.809,1276.86z"/>
				
					<linearGradient id="SVGID_00000183941975497166854100000008466654154410268554_" gradientUnits="userSpaceOnUse" x1="1428.2719" y1="1048.3771" x2="1215.601" y2="1517.5686">
					<stop  offset="0" style="stop-color:#FFDB44"/>
					<stop  offset="1" style="stop-color:#FEEF06"/>
				</linearGradient>
				<path style="fill:url(#SVGID_00000183941975497166854100000008466654154410268554_);" d="M1539.654,1267.331
					c0,110.515-86.416,197.451-196.865,194.059c-114.945-3.53-211.617-102.802-211.617-221.598s96.672-205.033,211.617-193.064
					C1453.238,1058.229,1539.654,1156.817,1539.654,1267.331z"/>
				
					<linearGradient id="SVGID_00000171696231862368588520000005104787864064421777_" gradientUnits="userSpaceOnUse" x1="1389.1509" y1="1543.792" x2="1348.1156" y2="1319.6177">
					<stop  offset="0" style="stop-color:#FCB148"/>
					<stop  offset="0.0521" style="stop-color:#FDBA46"/>
					<stop  offset="0.1424" style="stop-color:#FFC244"/>
					<stop  offset="0.3183" style="stop-color:#FFC444"/>
					<stop  offset="0.4849" style="stop-color:#FDB946"/>
					<stop  offset="0.7754" style="stop-color:#F99C4D"/>
					<stop  offset="0.8658" style="stop-color:#F8924F"/>
					<stop  offset="1" style="stop-color:#F8924F"/>
				</linearGradient>
				<path style="fill:url(#SVGID_00000171696231862368588520000005104787864064421777_);" d="M1530.985,1266.747
					c0,105.648-82.684,188.615-188.196,185.199c-109.607-3.549-201.633-98.289-201.633-211.48
					c0-113.192,92.026-195.522,201.633-184.293C1448.301,1066.983,1530.985,1161.099,1530.985,1266.747z"/>
				
					<linearGradient id="SVGID_00000080167071593008757380000017133944263346533770_" gradientUnits="userSpaceOnUse" x1="1302.1483" y1="1180.9412" x2="1471.2601" y2="1539.9333">
					<stop  offset="0" style="stop-color:#FCB148"/>
					<stop  offset="0.0521" style="stop-color:#FDBA46"/>
					<stop  offset="0.1424" style="stop-color:#FFC244"/>
					<stop  offset="0.3183" style="stop-color:#FFC444"/>
					<stop  offset="0.4849" style="stop-color:#FDB946"/>
					<stop  offset="0.7754" style="stop-color:#F99C4D"/>
					<stop  offset="0.8658" style="stop-color:#F8924F"/>
					<stop  offset="1" style="stop-color:#F8924F"/>
				</linearGradient>
				<path style="fill:url(#SVGID_00000080167071593008757380000017133944263346533770_);" d="M1524.776,1266.328
					c0,102.163-80.007,182.295-181.987,178.871c-105.801-3.552-194.523-95.055-194.523-204.255
					c0-109.2,88.722-188.739,194.523-178.026C1444.769,1073.245,1524.776,1164.166,1524.776,1266.328z"/>
				<g>
					
						<linearGradient id="SVGID_00000031900164792945064960000002402676180568573615_" gradientUnits="userSpaceOnUse" x1="1295.4108" y1="1103.6908" x2="1380.446" y2="1422.3878">
						<stop  offset="0" style="stop-color:#FFDB44"/>
						<stop  offset="1" style="stop-color:#FEEF06"/>
					</linearGradient>
					<path style="fill:url(#SVGID_00000031900164792945064960000002402676180568573615_);" d="M1341.745,1097.675L1341.745,1097.675
						c5.427,0.516,9.819,5.401,9.819,10.912v18.81c10.851,1.212,21.718,3.098,32.6,5.655c8.024,1.886,15.993,4.13,23.909,6.733
						c4.743,1.56,7.975,6.348,7.491,11.288l-2.31,23.587c-0.613,6.258-6.799,9.933-12.623,7.336
						c-5.214-2.325-10.56-4.317-16.04-5.975c-9.561-2.893-19.644-4.779-30.254-5.654l-2.774-0.228v53.869
						c28.309,7.92,49.1,18.575,62.535,31.977c13.371,13.338,20.033,29.96,20.033,49.916c0,21.58-7.365,38.86-22.155,51.893
						c-14.868,13.102-35.714,20.471-62.67,22.066v20.761c0,5.514-4.395,9.808-9.827,9.593l-0.174-0.007
						c-5.442-0.216-9.862-4.877-9.862-10.41v-20.48l-4.375-0.197c-12.637-0.57-24.742-1.859-36.307-3.871
						c-8.565-1.49-16.929-3.413-25.09-5.771c-4.936-1.426-8.324-6.127-7.871-11.178l2.718-30.32
						c0.587-6.555,7.171-10.369,13.404-7.91c7.265,2.866,14.62,5.28,22.066,7.243c11.602,3.06,23.363,5.022,35.279,5.894
						l0.175-59.922c-27.174-6.724-47.518-16.683-60.885-29.875c-13.429-13.254-20.167-30.216-20.167-50.839
						c0-21.342,7.306-37.816,21.864-49.378c14.483-11.504,35.073-17.226,61.635-17.212v-19.23
						C1331.892,1101.221,1336.307,1097.157,1341.745,1097.675z M1331.892,1169.581c-8.398,0.611-14.947,2.917-19.635,6.922
						c-4.695,4.012-7.045,9.403-7.045,16.17c0,6.41,2.174,11.769,6.518,16.07c4.337,4.295,11.063,7.724,20.162,10.286V1169.581z
						 M1349.308,1278.087v54.95c9.13,0.018,16.13-2.162,21.017-6.533c4.879-4.364,7.315-10.528,7.315-18.497
						c0-7.267-2.264-13.293-6.798-18.085C1366.301,1285.121,1359.13,1281.177,1349.308,1278.087z"/>
				</g>
				
					<linearGradient id="SVGID_00000026157071313765972230000005920611663812336791_" gradientUnits="userSpaceOnUse" x1="1252.3961" y1="1204.1733" x2="1421.1669" y2="1562.4413">
					<stop  offset="0" style="stop-color:#FCB148"/>
					<stop  offset="0.0521" style="stop-color:#FDBA46"/>
					<stop  offset="0.1424" style="stop-color:#FFC244"/>
					<stop  offset="0.3183" style="stop-color:#FFC444"/>
					<stop  offset="0.4849" style="stop-color:#FDB946"/>
					<stop  offset="0.7754" style="stop-color:#F99C4D"/>
					<stop  offset="0.8658" style="stop-color:#F8924F"/>
					<stop  offset="1" style="stop-color:#F8924F"/>
				</linearGradient>
				<path style="opacity:0.3;fill:url(#SVGID_00000026157071313765972230000005920611663812336791_);" d="M1309.857,1291.346
					c6.149-60.728,61.96-86.437,54.677-142.297c-4.489-34.429-30.584-63.444-59.695-86.099
					c-88.296,9.26-156.572,82.371-156.572,177.996c0,109.2,88.722,200.702,194.522,204.255c10.272,0.345,20.305-0.189,30.061-1.468
					C1330.832,1401.921,1304.574,1343.519,1309.857,1291.346z"/>
			</g>
			<g>
				
					<linearGradient id="SVGID_00000016068924132522542730000007986814104025508746_" gradientUnits="userSpaceOnUse" x1="1792.5413" y1="1058.2826" x2="1482.2039" y2="3793.4521">
					<stop  offset="0" style="stop-color:#AB316D"/>
					<stop  offset="1" style="stop-color:#792D3D"/>
				</linearGradient>
				<path style="fill:url(#SVGID_00000016068924132522542730000007986814104025508746_);" d="M2146.809,2104.416l65.871,769.084
					c1.699,19.838-4.321,38.474-16.966,51.818c-10.818,11.475-25.346,19.255-42.31,20.684l-970.312,81.717
					c-41.109,3.461-76.326-25.776-79.246-64.956l-60.968-818.228c-2.87-38.512,27.677-72.03,68.552-73.359l964.288-31.362
					C2112.308,2038.624,2143.707,2068.199,2146.809,2104.416z"/>
				
					<linearGradient id="SVGID_00000136400334304517381460000014010406269986280110_" gradientUnits="userSpaceOnUse" x1="4863.6245" y1="1288.5956" x2="450.5655" y2="2953.8987">
					<stop  offset="0" style="stop-color:#AB316D"/>
					<stop  offset="1" style="stop-color:#792D3D"/>
				</linearGradient>
				<path style="opacity:0.2;fill:url(#SVGID_00000136400334304517381460000014010406269986280110_);" d="M2196.777,2925.319
					c-10.818,11.476-25.74,19.244-42.704,20.672l-970.656,81.722c-41.11,3.461-76.651-25.771-79.571-64.951l-60.968-818.228
					c-2.87-38.512,27.677-72.03,68.552-73.359l11.228-0.365c4.07,21.119,9.531,44.832,14.748,67.584
					c0.725,3.163,1.467,6.58,2.179,9.61c6.052,26.263,11.241,47.862,12.163,50.642c30.259,90.604,73.035,194.709,163.409,245.361
					c138.097,77.453,312.947,63.541,458.172,105.95c95.639,27.932,193.823,65.683,269.913,128.862
					c55.593,46.165,102.511,103.088,129.954,169.693C2183.137,2872.62,2190.92,2898.637,2196.777,2925.319z"/>
				<g style="opacity:0.7;">
					<path style="fill:#FFFFFF;" d="M2075.787,2912.527c-0.013,0-0.03,0-0.044,0l-33.427,2.066c-3.8,0.311-7.162-2.843-7.479-6.634
						c-0.318-3.79,2.483-6.614,6.283-6.922l33.359-2.207c0.013,0,0.027,0,0.037,0c5.718,0,11.28-2.256,16.621-4.021
						c3.583-1.205,7.49,0.429,8.688,4.029c1.201,3.597-0.692,7.977-4.285,9.169
						C2089.167,2910.119,2082.597,2912.527,2075.787,2912.527z M1989.974,2918.207l-52.611,4.306
						c-3.845,0.315-7.22-2.522-7.536-6.335c-0.316-3.813,2.547-7.157,6.392-7.469l52.607-4.265c3.821-0.31,7.174,2.519,7.491,6.317
						S1993.795,2917.895,1989.974,2918.207z M1884.439,2926.845l-53.239,4.358c-3.891,0.318-7.302-2.534-7.615-6.37
						c-0.314-3.836,2.588-7.202,6.479-7.517L1883.3,2913c3.866-0.314,7.255,2.531,7.57,6.352
						C1891.185,2923.174,1888.306,2926.529,1884.439,2926.845z M1777.643,2935.586l-53.875,4.41
						c-3.938,0.323-7.385-2.546-7.696-6.405c-0.311-3.859,2.63-7.247,6.568-7.566l53.871-4.367c3.913-0.317,7.337,2.543,7.65,6.387
						C1784.474,2931.889,1781.556,2935.266,1777.643,2935.586z M1669.564,2944.433l-54.53,4.463
						c-3.986,0.326-7.469-2.558-7.778-6.441c-0.309-3.883,2.673-7.293,6.659-7.616l54.526-4.42c3.96-0.321,7.421,2.555,7.731,6.423
						C1676.483,2940.709,1673.525,2944.108,1669.564,2944.433z M1560.174,2953.386l-55.193,4.518
						c-4.034,0.33-7.555-2.57-7.862-6.477s2.717-7.34,6.751-7.667l55.189-4.474c4.008-0.325,7.506,2.567,7.814,6.459
						S1564.182,2953.058,1560.174,2953.386z M1449.451,2962.449l-55.869,4.573c-4.084,0.334-7.643-2.582-7.947-6.514
						c-0.304-3.931,2.762-7.387,6.845-7.718l55.864-4.529c4.057-0.329,7.593,2.579,7.898,6.495
						C1456.549,2958.672,1453.508,2962.117,1449.451,2962.449z M1337.371,2971.622l-56.557,4.629
						c-4.134,0.338-7.732-2.595-8.034-6.551c-0.301-3.956,2.807-7.434,6.941-7.77l56.552-4.584c4.107-0.333,7.681,2.592,7.984,6.532
						C1344.561,2967.819,1341.478,2971.286,1337.371,2971.622z M1223.916,2979.243c-0.5,0.041-1.011,0.037-1.53-0.023
						c-20.645-2.305-40.112-11.347-54.789-25.47c-2.932-2.818-2.874-7.396,0.125-10.216c3.004-2.827,7.803-2.826,10.728-0.006
						c12.299,11.839,28.602,19.429,45.894,21.376c4.132,0.462,7.043,4.042,6.504,7.998
						C1230.377,2976.358,1227.42,2978.956,1223.916,2979.243z M2134.242,2876.532c-1.476,0.118-2.999-0.239-4.332-1.125
						c-3.15-2.092-4.026-6.342-1.949-9.489c8.8-13.342,12.729-28.854,11.368-44.865c-0.319-3.76,2.464-7.042,6.215-7.329
						c3.749-0.287,7.047,2.526,7.367,6.283c1.624,19.083-3.053,37.577-13.541,53.496
						C2138.173,2875.318,2136.255,2876.37,2134.242,2876.532z M1149.471,2907.261c-4.066,0.315-7.779-2.331-8.218-6.209
						c-0.121-1.062-0.338-1.981-0.419-3.057l-3.867-51.602c-0.298-3.972,2.21-7.483,6.397-7.792
						c4.185-0.309,7.169,2.619,7.467,6.588l3.87,51.552c0.068,0.899,0.922,1.694,1.023,2.588c0.446,3.958-2.18,7.579-6.367,7.904
						C1149.264,2907.239,1149.559,2907.255,1149.471,2907.261z M2145.252,2801.347c-3.751,0.285-5.775-2.517-6.095-6.276
						l-4.382-51.564c-0.319-3.755,1.188-7.03,4.938-7.301c3.749-0.271,5.768,2.54,6.087,6.292l4.384,51.517
						C2150.502,2797.771,2149.001,2801.063,2145.252,2801.347z M1140.356,2798.504c-4.186,0.3-7.175-2.638-7.473-6.607
						l-4.079-54.437c-0.297-3.964,2.21-7.44,6.394-7.724c4.182-0.284,7.165,2.665,7.462,6.625l4.083,54.384
						C1147.041,2794.71,1144.54,2798.204,1140.356,2798.504z M2136.49,2698.306c-3.749,0.262-5.773-2.558-6.092-6.309l-4.373-51.458
						c-0.319-3.747,1.189-6.991,4.937-7.239c3.747-0.249,5.765,2.581,6.084,6.325l4.375,51.411
						C2141.739,2694.783,2140.237,2698.043,2136.49,2698.306z M1132.198,2689.727c-4.183,0.275-7.171-2.684-7.468-6.644
						l-4.07-54.318c-0.296-3.955,2.21-7.396,6.392-7.656c4.179-0.26,7.161,2.71,7.457,6.662l4.074,54.266
						C1138.88,2685.993,1136.379,2689.452,1132.198,2689.727z M2127.745,2595.476c-3.747,0.24-5.771-2.598-6.089-6.342
						l-4.364-51.352c-0.318-3.74,1.191-6.952,4.937-7.178c3.744-0.226,5.763,2.622,6.081,6.358l4.366,51.305
						C2132.993,2592.007,2131.491,2595.236,2127.745,2595.476z M1124.057,2581.186c-4.18,0.25-7.167-2.73-7.463-6.681l-4.061-54.2
						c-0.296-3.947,2.211-7.353,6.389-7.588c4.177-0.235,7.157,2.756,7.453,6.699l4.065,54.148
						C1130.736,2577.512,1128.236,2580.936,1124.057,2581.186z M2119.019,2492.858c-3.745,0.219-5.769-2.639-6.086-6.375
						l-4.355-51.247c-0.317-3.732,1.192-6.913,4.936-7.118c3.742-0.204,5.761,2.663,6.078,6.391l4.357,51.2
						C2124.266,2489.442,2122.762,2492.639,2119.019,2492.858z M1115.934,2472.881c-4.178,0.226-7.163-2.775-7.458-6.718
						l-4.052-54.083c-0.295-3.938,2.211-7.309,6.387-7.52c4.174-0.21,7.152,2.801,7.448,6.736l4.056,54.031
						C1122.61,2469.266,1120.11,2472.655,1115.934,2472.881z M2110.31,2390.45c-3.743,0.197-5.767-2.679-6.083-6.408l-4.346-51.141
						c-0.317-3.724,1.194-6.875,4.936-7.057c3.74-0.182,5.758,2.703,6.075,6.424l4.348,51.095
						C2115.556,2387.087,2114.052,2390.254,2110.31,2390.45z M1107.829,2364.81c-4.175,0.202-7.159-2.821-7.454-6.755l-4.044-53.966
						c-0.295-3.929,2.211-7.266,6.384-7.452c4.171-0.186,7.148,2.846,7.443,6.772l4.047,53.914
						C1114.502,2361.254,1112.002,2364.609,1107.829,2364.81z M2101.62,2288.252c-3.741,0.175-5.764-2.72-6.08-6.441l-4.337-51.033
						c-0.316-3.717,1.195-6.836,4.935-6.997c3.739-0.161,5.756,2.743,6.072,6.456l4.339,50.987
						C2106.865,2284.942,2105.359,2288.078,2101.62,2288.252z M1099.741,2256.973c-4.172,0.177-7.155-2.865-7.449-6.791
						l-3.036-40.516c-0.363-4.838-0.173-9.717,0.302-14.482c0.392-3.899,4.162-6.633,8.311-6.189
						c4.161,0.481,6.478,4.038,6.091,7.93c-0.402,3.994-1.188,8.092-0.883,12.152l3.039,40.478
						C1106.411,2253.476,1103.912,2256.796,1099.741,2256.973z M2092.947,2186.264c-3.739,0.153-5.762-2.76-6.078-6.473
						l-0.839-9.867c-1.07-12.592-6.548-24.775-13.924-35.271c-2.188-3.114-1.991-7.267,1.064-9.29
						c3.058-2.019,6.793-1.117,8.978,1.994c8.792,12.52,13.61,27.078,14.887,42.081l0.839,9.858
						C2098.19,2183.006,2096.685,2186.111,2092.947,2186.264z M1121.072,2155.787c-2.044,0.076-4.135-0.623-5.735-2.101
						c-3.023-2.784-3.143-7.271-0.271-10.022c14.362-13.751,33.575-22.497,54.079-24.64c4.091-0.355,7.904,2.367,8.502,6.242
						c0.594,3.875-2.246,7.366-6.345,7.8c-17.178,1.808-33.268,9.149-45.299,20.68
						C1124.652,2155.041,1122.884,2155.72,1121.072,2155.787z M2035.864,2106.908c-0.814,0.03-1.654-0.088-2.484-0.365
						c-8.362-2.793-17.05-4.05-25.826-3.735l-23.198,0.834c-3.78,0.136-7.099-2.776-7.412-6.503
						c-0.313-3.727,2.499-6.856,6.278-6.989l23.196-0.816c10.457-0.368,20.817,1.139,30.79,4.479
						c3.619,1.212,5.694,5.041,4.636,8.553C2041.033,2105.077,2038.594,2106.809,2035.864,2106.908z M1932.34,2105.512
						l-52.323,1.881c-3.824,0.137-7.178-2.791-7.489-6.54c-0.311-3.749,2.539-6.897,6.363-7.032l52.319-1.841
						c3.8-0.134,7.133,2.786,7.445,6.521C1938.967,2102.236,1936.14,2105.375,1932.34,2105.512z M1827.386,2109.285l-52.942,1.903
						c-3.87,0.139-7.258-2.806-7.567-6.578c-0.309-3.771,2.58-6.939,6.449-7.075l52.938-1.863c3.845-0.135,7.212,2.801,7.522,6.558
						C1834.096,2105.988,1831.231,2109.146,1827.386,2109.285z M1721.188,2113.102l-53.573,1.926
						c-3.916,0.141-7.34-2.822-7.647-6.616c-0.306-3.794,2.621-6.981,6.537-7.119l53.569-1.885c3.891-0.137,7.293,2.816,7.601,6.596
						C1727.982,2109.784,1725.078,2112.962,1721.188,2113.102z M1613.723,2116.965l-54.211,1.949
						c-3.963,0.142-7.423-2.837-7.728-6.654c-0.304-3.817,2.663-7.024,6.626-7.164l54.207-1.907
						c3.937-0.138,7.376,2.832,7.681,6.634C1620.604,2113.626,1617.66,2116.824,1613.723,2116.965z M1504.968,2120.875
						l-54.865,1.972c-4.011,0.144-7.508-2.853-7.81-6.693c-0.302-3.84,2.707-7.067,6.717-7.208l54.86-1.93
						c3.984-0.14,7.46,2.847,7.763,6.673C1511.937,2117.514,1508.953,2120.731,1504.968,2120.875z M1394.904,2124.831l-55.533,1.996
						c-4.059,0.146-7.594-2.868-7.894-6.732c-0.299-3.863,2.751-7.111,6.81-7.254l55.529-1.954c4.033-0.142,7.545,2.863,7.846,6.712
						C1401.962,2121.448,1398.937,2124.686,1394.904,2124.831z M1283.5,2128.836l-56.211,2.021
						c-4.109,0.148-7.682-2.884-7.979-6.772c-0.297-3.887,2.795-7.155,6.904-7.3l56.206-1.978c4.082-0.144,7.632,2.879,7.93,6.751
						C1290.649,2125.43,1287.582,2128.689,1283.5,2128.836z"/>
				</g>
				
					<linearGradient id="SVGID_00000075841599332008093830000007389680717517734297_" gradientUnits="userSpaceOnUse" x1="3151.9219" y1="2125.6162" x2="1761.3376" y2="2650.3645">
					<stop  offset="0" style="stop-color:#AB316D"/>
					<stop  offset="1" style="stop-color:#792D3D"/>
				</linearGradient>
				<path style="fill:url(#SVGID_00000075841599332008093830000007389680717517734297_);" d="M2185.906,2316.219
					c-5.91-3.609-12.99-4.175-19.169-1.505l-197.31,84.414c-28.303,12.234-47.625,40.899-45.062,71.736l6.81,81.948
					c2.727,32.809,29.253,60.225,61.762,67.388l204.19,44.71c6.454,1.422,13.448-0.276,18.354-4.578
					c4.899-4.3,7.76-10.701,7.195-17.275l-26.664-310.236C2195.427,2326.033,2191.814,2319.825,2185.906,2316.219z"/>
				
					<linearGradient id="SVGID_00000116194069403141162490000010101247860996326816_" gradientUnits="userSpaceOnUse" x1="2279.5842" y1="2404.782" x2="1930.6979" y2="2536.437">
					<stop  offset="0" style="stop-color:#FFC444"/>
					<stop  offset="0.9964" style="stop-color:#F36F56"/>
				</linearGradient>
				<path style="fill:url(#SVGID_00000116194069403141162490000010101247860996326816_);" d="M2055.558,2502.525
					c1.913,22.673-15.045,42.19-37.933,43.585c-22.947,1.399-43.136-15.938-45.039-38.719c-1.903-22.77,15.193-42.271,38.13-43.563
					C2033.593,2462.54,2053.645,2479.862,2055.558,2502.525z"/>
			</g>
		</g>
	</g>
</g>
</svg>
